<?xml version="1.0" encoding="utf-8" standalone="no"?>
<!DOCTYPE svg PUBLIC "-//W3C//DTD SVG 1.1//EN"
  "http://www.w3.org/Graphics/SVG/1.1/DTD/svg11.dtd">
<!-- Created with matplotlib (https://matplotlib.org/) -->
<svg height="279.701562pt" version="1.1" viewBox="0 0 383.01125 279.701562" width="383.01125pt" xmlns="http://www.w3.org/2000/svg" xmlns:xlink="http://www.w3.org/1999/xlink">
 <metadata>
  <rdf:RDF xmlns:cc="http://creativecommons.org/ns#" xmlns:dc="http://purl.org/dc/elements/1.1/" xmlns:rdf="http://www.w3.org/1999/02/22-rdf-syntax-ns#">
   <cc:Work>
    <dc:type rdf:resource="http://purl.org/dc/dcmitype/StillImage"/>
    <dc:date>2020-10-21T12:43:30.623139</dc:date>
    <dc:format>image/svg+xml</dc:format>
    <dc:creator>
     <cc:Agent>
      <dc:title>Matplotlib v3.3.0, https://matplotlib.org/</dc:title>
     </cc:Agent>
    </dc:creator>
   </cc:Work>
  </rdf:RDF>
 </metadata>
 <defs>
  <style type="text/css">*{stroke-linecap:butt;stroke-linejoin:round;}</style>
 </defs>
 <g id="figure_1">
  <g id="patch_1">
   <path d="M 0 279.701562 
L 383.01125 279.701562 
L 383.01125 0 
L 0 0 
z
" style="fill:none;"/>
  </g>
  <g id="axes_1">
   <g id="patch_2">
    <path d="M 41.01125 242.201562 
L 375.81125 242.201562 
L 375.81125 24.761562 
L 41.01125 24.761562 
z
" style="fill:#ffffff;"/>
   </g>
   <g id="matplotlib.axis_1">
    <g id="xtick_1">
     <g id="line2d_1">
      <defs>
       <path d="M 0 0 
L 0 2 
" id="mdc3e9413c1" style="stroke:#000000;stroke-width:0.8;"/>
      </defs>
      <g>
       <use style="stroke:#000000;stroke-width:0.8;" x="56.229432" xlink:href="#mdc3e9413c1" y="242.201562"/>
      </g>
     </g>
     <g id="text_1">
      <!-- 1 -->
      <g transform="translate(53.729432 254.53125)scale(0.1 -0.1)">
       <defs>
        <path d="M 39.40625 0 
L 11.796875 0 
L 11.796875 1.5 
Q 17.296875 1.796875 19.296875 3.546875 
Q 21.296875 5.296875 21.296875 9.5 
L 21.296875 54.40625 
Q 21.296875 59.296875 18.296875 59.296875 
Q 16.90625 59.296875 13.796875 58.09375 
L 11.09375 57.09375 
L 11.09375 58.5 
L 29 67.59375 
L 29.90625 67.296875 
L 29.90625 7.59375 
Q 29.90625 4.296875 31.90625 2.890625 
Q 33.90625 1.5 39.40625 1.5 
z
" id="STIXGeneral-Regular-49"/>
       </defs>
       <use xlink:href="#STIXGeneral-Regular-49"/>
      </g>
     </g>
    </g>
    <g id="xtick_2">
     <g id="line2d_2">
      <g>
       <use style="stroke:#000000;stroke-width:0.8;" x="126.467194" xlink:href="#mdc3e9413c1" y="242.201562"/>
      </g>
     </g>
     <g id="text_2">
      <!-- 10 -->
      <g transform="translate(121.467194 254.53125)scale(0.1 -0.1)">
       <defs>
        <path d="M 47.59375 33 
Q 47.59375 26.296875 46.296875 20.34375 
Q 45 14.40625 42.453125 9.40625 
Q 39.90625 4.40625 35.40625 1.5 
Q 30.90625 -1.40625 25 -1.40625 
Q 18.90625 -1.40625 14.296875 1.6875 
Q 9.703125 4.796875 7.203125 10 
Q 4.703125 15.203125 3.546875 21.09375 
Q 2.40625 27 2.40625 33.59375 
Q 2.40625 42.90625 4.703125 50.34375 
Q 7 57.796875 12.34375 62.6875 
Q 17.703125 67.59375 25.40625 67.59375 
Q 35.203125 67.59375 41.390625 58 
Q 47.59375 48.40625 47.59375 33 
z
M 38 32.5 
Q 38 48.296875 34.640625 56.640625 
Q 31.296875 65 24.796875 65 
Q 18.59375 65 15.296875 56.59375 
Q 12 48.203125 12 32.90625 
Q 12 17.5 15.296875 9.34375 
Q 18.59375 1.203125 25 1.203125 
Q 31.296875 1.203125 34.640625 9.34375 
Q 38 17.5 38 32.5 
z
" id="STIXGeneral-Regular-48"/>
       </defs>
       <use xlink:href="#STIXGeneral-Regular-49"/>
       <use x="49.999985" xlink:href="#STIXGeneral-Regular-48"/>
      </g>
     </g>
    </g>
    <g id="xtick_3">
     <g id="line2d_3">
      <g>
       <use style="stroke:#000000;stroke-width:0.8;" x="204.509152" xlink:href="#mdc3e9413c1" y="242.201562"/>
      </g>
     </g>
     <g id="text_3">
      <!-- 20 -->
      <g transform="translate(199.509152 254.53125)scale(0.1 -0.1)">
       <defs>
        <path d="M 47.40625 13.703125 
L 42 0 
L 2.90625 0 
L 2.90625 1.203125 
L 20.703125 20.09375 
Q 27.703125 27.40625 30.703125 33.5 
Q 33.703125 39.59375 33.703125 46.09375 
Q 33.703125 52.796875 30 56.5 
Q 26.296875 60.203125 19.796875 60.203125 
Q 14.40625 60.203125 11.25 57.390625 
Q 8.09375 54.59375 5.09375 47.203125 
L 3 47.703125 
Q 4.703125 57 9.84375 62.296875 
Q 15 67.59375 23.796875 67.59375 
Q 32.09375 67.59375 37.1875 62.59375 
Q 42.296875 57.59375 42.296875 50 
Q 42.296875 38.703125 29.5 25.203125 
L 13 7.59375 
L 36.40625 7.59375 
Q 39.703125 7.59375 41.640625 8.890625 
Q 43.59375 10.203125 46 14.296875 
z
" id="STIXGeneral-Regular-50"/>
       </defs>
       <use xlink:href="#STIXGeneral-Regular-50"/>
       <use x="49.999985" xlink:href="#STIXGeneral-Regular-48"/>
      </g>
     </g>
    </g>
    <g id="xtick_4">
     <g id="line2d_4">
      <g>
       <use style="stroke:#000000;stroke-width:0.8;" x="282.55111" xlink:href="#mdc3e9413c1" y="242.201562"/>
      </g>
     </g>
     <g id="text_4">
      <!-- 30 -->
      <g transform="translate(277.55111 254.53125)scale(0.1 -0.1)">
       <defs>
        <path d="M 6.09375 51 
L 4.5 51.40625 
Q 6.796875 58.90625 11.6875 63.25 
Q 16.59375 67.59375 24.09375 67.59375 
Q 31.09375 67.59375 35.390625 63.796875 
Q 39.703125 60 39.703125 53.90625 
Q 39.703125 45.703125 30.40625 40.09375 
Q 35.90625 37.703125 38.703125 34.796875 
Q 43.09375 29.90625 43.09375 21.90625 
Q 43.09375 13.90625 38.5 7.90625 
Q 35.09375 3.296875 28.75 0.9375 
Q 22.40625 -1.40625 15.296875 -1.40625 
Q 4.09375 -1.40625 4.09375 4.296875 
Q 4.09375 5.90625 5.296875 6.90625 
Q 6.5 7.90625 8.203125 7.90625 
Q 10.703125 7.90625 14.296875 5.296875 
Q 18.703125 2.203125 22.90625 2.203125 
Q 28.40625 2.203125 32.15625 6.640625 
Q 35.90625 11.09375 35.90625 17.5 
Q 35.90625 29 25.5 32 
Q 22.40625 33 15.296875 33 
L 15.296875 34.40625 
Q 20.90625 36.296875 23.703125 38 
Q 31.796875 42.59375 31.796875 51.40625 
Q 31.796875 56.40625 28.9375 59 
Q 26.09375 61.59375 21 61.59375 
Q 12 61.59375 6.09375 51 
z
" id="STIXGeneral-Regular-51"/>
       </defs>
       <use xlink:href="#STIXGeneral-Regular-51"/>
       <use x="49.999985" xlink:href="#STIXGeneral-Regular-48"/>
      </g>
     </g>
    </g>
    <g id="xtick_5">
     <g id="line2d_5">
      <g>
       <use style="stroke:#000000;stroke-width:0.8;" x="360.593068" xlink:href="#mdc3e9413c1" y="242.201562"/>
      </g>
     </g>
     <g id="text_5">
      <!-- 40 -->
      <g transform="translate(355.593068 254.53125)scale(0.1 -0.1)">
       <defs>
        <path d="M 47.296875 16.703125 
L 37 16.703125 
L 37 0 
L 29.203125 0 
L 29.203125 16.703125 
L 1.203125 16.703125 
L 1.203125 23.09375 
L 32.59375 67.59375 
L 37 67.59375 
L 37 23.09375 
L 47.296875 23.09375 
z
M 29.203125 23.09375 
L 29.203125 57.40625 
L 5.203125 23.09375 
z
" id="STIXGeneral-Regular-52"/>
       </defs>
       <use xlink:href="#STIXGeneral-Regular-52"/>
       <use x="49.999985" xlink:href="#STIXGeneral-Regular-48"/>
      </g>
     </g>
    </g>
    <g id="text_6">
     <!-- Experiment Number -->
     <g transform="translate(159.253437 269.897187)scale(0.12 -0.12)">
      <defs>
       <path d="M 59.703125 16.90625 
L 55.09375 0 
L 1.203125 0 
L 1.203125 1.90625 
Q 6.90625 2.296875 8.40625 3.9375 
Q 9.90625 5.59375 9.90625 11.40625 
L 9.90625 55 
Q 9.90625 60.59375 8.34375 62.296875 
Q 6.796875 64 1.203125 64.296875 
L 1.203125 66.203125 
L 54.203125 66.203125 
L 54.59375 51.90625 
L 52.09375 51.90625 
Q 51 58.59375 48.203125 60.5 
Q 45.40625 62.40625 36.703125 62.40625 
L 23.59375 62.40625 
Q 21.40625 62.40625 20.75 61.75 
Q 20.09375 61.09375 20.09375 58.796875 
L 20.09375 36.796875 
L 35.203125 36.796875 
Q 41.5 36.796875 43.546875 38.59375 
Q 45.59375 40.40625 46.5 46.40625 
L 48.796875 46.40625 
L 48.796875 23 
L 46.5 23 
Q 45.59375 29.296875 43.59375 31 
Q 41.59375 32.703125 35.203125 32.703125 
L 20.09375 32.703125 
L 20.09375 8.40625 
Q 20.09375 5.40625 22.1875 4.546875 
Q 24.296875 3.703125 30.203125 3.703125 
L 33.796875 3.703125 
Q 44.5 3.703125 49 6.296875 
Q 53.5 8.90625 56.90625 16.90625 
z
" id="STIXGeneral-Regular-69"/>
       <path d="M 47.90625 0 
L 27.796875 0 
L 27.796875 1.5 
Q 30.296875 1.703125 31.046875 2.140625 
Q 31.796875 2.59375 31.796875 3.90625 
Q 31.796875 4.796875 31.203125 5.703125 
L 22.09375 19.703125 
L 14.203125 7.40625 
Q 12.203125 4.296875 12.203125 3.296875 
Q 12.203125 1.5 16.203125 1.5 
L 16.203125 0 
L 1.703125 0 
L 1.703125 1.5 
Q 4.203125 1.703125 5.546875 2.640625 
Q 6.90625 3.59375 9 6.59375 
L 20.40625 23.09375 
L 11 37.5 
Q 8.703125 41 7.09375 42.25 
Q 5.5 43.5 3.296875 43.5 
L 2.40625 43.5 
L 2.40625 45 
L 23.09375 45 
L 23.09375 43.5 
Q 18.796875 43.40625 18.796875 41.296875 
Q 18.796875 39.203125 23.40625 32.40625 
Q 24.703125 30.59375 24.796875 30.40625 
Q 25.296875 31.09375 27.796875 34.796875 
Q 28.296875 35.703125 29 36.703125 
Q 29.703125 37.703125 30.046875 38.296875 
Q 30.40625 38.90625 30.796875 39.5 
Q 31.203125 40.09375 31.34375 40.546875 
Q 31.5 41 31.5 41.296875 
Q 31.5 43.203125 27.5 43.5 
L 27.5 45 
L 43.296875 45 
L 43.296875 43.5 
Q 38.203125 43.296875 35.203125 39.09375 
L 26.90625 27.09375 
L 39.703125 7.5 
Q 43.59375 1.5 47.90625 1.5 
z
" id="STIXGeneral-Regular-120"/>
       <path d="M 15.90625 45.796875 
L 15.90625 38.09375 
Q 22.203125 46 30.296875 46 
Q 37.59375 46 42.296875 40 
Q 47 34 47 24.703125 
Q 47 13.796875 40.953125 6.390625 
Q 34.90625 -1 26 -1 
Q 22.90625 -1 20.75 -0.09375 
Q 18.59375 0.796875 15.90625 3.296875 
L 15.90625 -12.40625 
Q 15.90625 -17.09375 17.5 -18.4375 
Q 19.09375 -19.796875 24.703125 -19.90625 
L 24.703125 -21.703125 
L 0.5 -21.703125 
L 0.5 -20 
Q 4.90625 -19.59375 6.203125 -18.296875 
Q 7.5 -17 7.5 -13.09375 
L 7.5 33.703125 
Q 7.5 37.203125 6.703125 38.296875 
Q 5.90625 39.40625 3.40625 39.40625 
Q 1.796875 39.40625 0.90625 39.296875 
L 0.90625 40.90625 
Q 7.90625 43 15.296875 46 
z
M 15.90625 33.40625 
L 15.90625 8.796875 
Q 15.90625 6.59375 19.34375 4.390625 
Q 22.796875 2.203125 26.296875 2.203125 
Q 31.703125 2.203125 35.046875 7.296875 
Q 38.40625 12.40625 38.40625 20.703125 
Q 38.40625 29.5 35.046875 34.75 
Q 31.703125 40 26.09375 40 
Q 22.59375 40 19.25 37.796875 
Q 15.90625 35.59375 15.90625 33.40625 
z
" id="STIXGeneral-Regular-112"/>
       <path d="M 40.796875 16.40625 
L 42.40625 15.703125 
Q 36.40625 -1 21.5 -1 
Q 12.703125 -1 7.59375 5.140625 
Q 2.5 11.296875 2.5 21.703125 
Q 2.5 32.40625 8.203125 39.203125 
Q 13.90625 46 23.203125 46 
Q 32.203125 46 37.09375 39.09375 
Q 40 35.09375 40.5 27.703125 
L 9.703125 27.703125 
Q 10.09375 21.40625 10.9375 18.09375 
Q 11.796875 14.796875 14.296875 11.40625 
Q 18.5 5.90625 25.40625 5.90625 
Q 30.296875 5.90625 33.640625 8.296875 
Q 37 10.703125 40.796875 16.40625 
z
M 9.90625 30.90625 
L 30.296875 30.90625 
Q 29.40625 37.203125 27.34375 39.796875 
Q 25.296875 42.40625 20.5 42.40625 
Q 16.296875 42.40625 13.5 39.453125 
Q 10.703125 36.5 9.90625 30.90625 
z
" id="STIXGeneral-Regular-101"/>
       <path d="M 16 45.796875 
L 16 36.59375 
Q 19.796875 42 22.34375 44 
Q 24.90625 46 28 46 
Q 30.59375 46 32.046875 44.59375 
Q 33.5 43.203125 33.5 40.703125 
Q 33.5 38.59375 32.453125 37.390625 
Q 31.40625 36.203125 29.59375 36.203125 
Q 27.703125 36.203125 25.59375 38.203125 
Q 24 39.703125 23 39.703125 
Q 20.90625 39.703125 18.453125 36.796875 
Q 16 33.90625 16 31.5 
L 16 9 
Q 16 4.703125 17.703125 3.203125 
Q 19.40625 1.703125 24.5 1.5 
L 24.5 0 
L 0.5 0 
L 0.5 1.5 
Q 5.296875 2.40625 6.4375 3.5 
Q 7.59375 4.59375 7.59375 8.40625 
L 7.59375 33.40625 
Q 7.59375 36.703125 6.84375 38.046875 
Q 6.09375 39.40625 4.203125 39.40625 
Q 2.59375 39.40625 0.703125 39 
L 0.703125 40.59375 
Q 7 42.59375 15.5 46 
z
" id="STIXGeneral-Regular-114"/>
       <path d="M 18 63.203125 
Q 18 61 16.5 59.546875 
Q 15 58.09375 12.796875 58.09375 
Q 10.703125 58.09375 9.25 59.546875 
Q 7.796875 61 7.796875 63.203125 
Q 7.796875 65.296875 9.296875 66.796875 
Q 10.796875 68.296875 12.90625 68.296875 
Q 15.09375 68.296875 16.546875 66.796875 
Q 18 65.296875 18 63.203125 
z
M 25.296875 0 
L 1.59375 0 
L 1.59375 1.5 
Q 6.796875 1.796875 8.140625 3.296875 
Q 9.5 4.796875 9.5 10.40625 
L 9.5 33.09375 
Q 9.5 36.59375 8.796875 38 
Q 8.09375 39.40625 6.203125 39.40625 
Q 3.796875 39.40625 2 38.90625 
L 2 40.5 
L 17.5 46 
L 17.90625 45.59375 
L 17.90625 10.5 
Q 17.90625 4.90625 19.15625 3.40625 
Q 20.40625 1.90625 25.296875 1.5 
z
" id="STIXGeneral-Regular-105"/>
       <path d="M 77.5 0 
L 55.703125 0 
L 55.703125 1.5 
Q 59.90625 1.90625 61.046875 3.25 
Q 62.203125 4.59375 62.203125 9 
L 62.203125 29.59375 
Q 62.203125 35.59375 60.453125 38.1875 
Q 58.703125 40.796875 54.5 40.796875 
Q 51 40.796875 48.546875 39.390625 
Q 46.09375 38 43.796875 34.703125 
L 43.796875 9.5 
Q 43.796875 4.703125 45.25 3.140625 
Q 46.703125 1.59375 51 1.5 
L 51 0 
L 28.59375 0 
L 28.59375 1.5 
Q 33 1.796875 34.203125 2.9375 
Q 35.40625 4.09375 35.40625 8.59375 
L 35.40625 29.703125 
Q 35.40625 40.796875 28.90625 40.796875 
Q 26.09375 40.796875 22.9375 39.546875 
Q 19.796875 38.296875 18.296875 36.5 
Q 17 35 17 34.796875 
L 17 7 
Q 17 3.796875 18.390625 2.75 
Q 19.796875 1.703125 23.796875 1.5 
L 23.796875 0 
L 1.59375 0 
L 1.59375 1.5 
Q 5.796875 1.59375 7.1875 3.046875 
Q 8.59375 4.5 8.59375 8.796875 
L 8.59375 33.59375 
Q 8.59375 37.296875 7.796875 38.75 
Q 7 40.203125 5.09375 40.203125 
Q 3.59375 40.203125 1.90625 39.796875 
L 1.90625 41.5 
Q 8.703125 43.40625 15.796875 46 
L 16.59375 45.703125 
L 16.59375 38.296875 
L 16.796875 38.296875 
Q 21.296875 43 24.75 44.5 
Q 28.203125 46 32.09375 46 
Q 40 46 42.703125 37.59375 
Q 50.5 46 59 46 
Q 70.59375 46 70.59375 28 
L 70.59375 7.703125 
Q 70.59375 4.40625 71.59375 3.15625 
Q 72.59375 1.90625 74.90625 1.703125 
L 77.5 1.5 
z
" id="STIXGeneral-Regular-109"/>
       <path d="M 48.5 0 
L 27.703125 0 
L 27.796875 1.5 
Q 31.5 1.796875 32.75 3.640625 
Q 34 5.5 34 10.5 
L 34 30.40625 
Q 34 40.5 26.703125 40.5 
Q 24.203125 40.5 22 39.296875 
Q 19.796875 38.09375 16.40625 34.796875 
L 16.40625 7.203125 
Q 16.40625 4.203125 17.75 3 
Q 19.09375 1.796875 22.90625 1.5 
L 22.90625 0 
L 1.796875 0 
L 1.796875 1.5 
Q 5.59375 1.796875 6.796875 3.34375 
Q 8 4.90625 8 9.40625 
L 8 33.703125 
Q 8 37.40625 7.296875 38.796875 
Q 6.59375 40.203125 4.5 40.203125 
Q 2.5 40.203125 1.59375 39.796875 
L 1.59375 41.5 
Q 8.59375 43.5 15.296875 46 
L 16.09375 45.703125 
L 16.09375 37.90625 
L 16.203125 37.90625 
Q 23.296875 46 30.59375 46 
Q 36.296875 46 39.34375 42 
Q 42.40625 38 42.40625 30.59375 
L 42.40625 8.5 
Q 42.40625 4.5 43.59375 3.203125 
Q 44.796875 1.90625 48.5 1.5 
z
" id="STIXGeneral-Regular-110"/>
       <path d="M 26.59375 7.703125 
L 27.90625 6.59375 
Q 23.09375 -1 15.796875 -1 
Q 7 -1 7 11.703125 
L 7 41.796875 
L 1.703125 41.796875 
Q 1.296875 42.09375 1.296875 42.5 
Q 1.296875 43.296875 3 44.40625 
Q 6.796875 46.59375 12.703125 55.09375 
Q 12.90625 55.40625 13.65625 56.34375 
Q 14.40625 57.296875 14.703125 57.90625 
Q 15.40625 57.90625 15.40625 56.59375 
L 15.40625 45 
L 25.5 45 
L 25.5 41.796875 
L 15.40625 41.796875 
L 15.40625 13.203125 
Q 15.40625 8.40625 16.59375 6.296875 
Q 17.796875 4.203125 20.59375 4.203125 
Q 23.59375 4.203125 26.59375 7.703125 
z
" id="STIXGeneral-Regular-116"/>
       <path id="STIXGeneral-Regular-32"/>
       <path d="M 70.703125 66.203125 
L 70.703125 64.296875 
Q 65.59375 63.796875 64.09375 62.5 
Q 62.5 61.09375 61.84375 58.6875 
Q 61.203125 56.296875 61.203125 50.703125 
L 61.203125 -1.09375 
L 59.40625 -1.09375 
L 15.296875 53.796875 
L 15.296875 15 
Q 15.296875 7.40625 17 5.046875 
Q 18.703125 2.703125 24.59375 1.90625 
L 24.59375 0 
L 1.203125 0 
L 1.203125 1.90625 
Q 7.40625 2.59375 9.15625 4.84375 
Q 10.90625 7.09375 10.90625 15 
L 10.90625 59 
Q 8.296875 62.203125 6.5 63.25 
Q 4.703125 64.296875 1.203125 64.296875 
L 1.203125 66.203125 
L 18.203125 66.203125 
L 56.796875 17.90625 
L 56.796875 51.90625 
Q 56.796875 59.5 54.90625 61.703125 
Q 53.703125 63 52.25 63.453125 
Q 50.796875 63.90625 47 64.296875 
L 47 66.203125 
z
" id="STIXGeneral-Regular-78"/>
       <path d="M 48 5 
L 48 3.59375 
Q 40.203125 1.5 34.296875 -0.90625 
L 33.796875 -0.59375 
L 33.796875 7.59375 
L 33.59375 7.59375 
Q 27.296875 -1 19.296875 -1 
Q 13.59375 -1 10.34375 2.5 
Q 7.09375 6 7.09375 11.796875 
L 7.09375 36.90625 
Q 7.09375 40.59375 5.796875 42 
Q 4.5 43.40625 0.90625 43.59375 
L 0.90625 45 
L 15.5 45 
L 15.5 12.703125 
Q 15.5 9.296875 17.546875 7.046875 
Q 19.59375 4.796875 22.59375 4.796875 
Q 27.5 4.796875 31 7.90625 
Q 32.296875 9.09375 32.796875 10.140625 
Q 33.296875 11.203125 33.296875 13.703125 
L 33.296875 36.796875 
Q 33.296875 40.703125 31.890625 41.84375 
Q 30.5 43 25.90625 43.296875 
L 25.90625 45 
L 41.703125 45 
L 41.703125 10.703125 
Q 41.703125 7.203125 42.84375 6.09375 
Q 44 5 47.40625 5 
z
" id="STIXGeneral-Regular-117"/>
       <path d="M 15.296875 68.09375 
L 15.296875 37.59375 
Q 16.90625 41.40625 20.546875 43.703125 
Q 24.203125 46 28.796875 46 
Q 36.703125 46 41.75 39.703125 
Q 46.796875 33.40625 46.796875 24 
Q 46.796875 13 40.09375 6 
Q 33.40625 -1 23.40625 -1 
Q 17.296875 -1 12.09375 1.046875 
Q 6.90625 3.09375 6.90625 5.59375 
L 6.90625 56.59375 
Q 6.90625 60.296875 6 61.34375 
Q 5.09375 62.40625 2 62.40625 
Q 1.296875 62.40625 0.296875 62.203125 
L 0.296875 63.90625 
L 3.296875 64.796875 
Q 13.5 67.90625 14.796875 68.296875 
z
M 15.296875 31.796875 
L 15.296875 7.40625 
Q 15.296875 5.09375 18.140625 3.640625 
Q 21 2.203125 25 2.203125 
Q 30.90625 2.203125 34.296875 6.5 
Q 38 11.09375 38 19.703125 
Q 38 29.5 34.09375 35 
Q 30.796875 39.703125 25.203125 39.703125 
Q 21.203125 39.703125 18.25 37.34375 
Q 15.296875 35 15.296875 31.796875 
z
" id="STIXGeneral-Regular-98"/>
      </defs>
      <use xlink:href="#STIXGeneral-Regular-69"/>
      <use x="61.099991" xlink:href="#STIXGeneral-Regular-120"/>
      <use x="111.099976" xlink:href="#STIXGeneral-Regular-112"/>
      <use x="161.09996" xlink:href="#STIXGeneral-Regular-101"/>
      <use x="205.499954" xlink:href="#STIXGeneral-Regular-114"/>
      <use x="238.799942" xlink:href="#STIXGeneral-Regular-105"/>
      <use x="266.59993" xlink:href="#STIXGeneral-Regular-109"/>
      <use x="344.399918" xlink:href="#STIXGeneral-Regular-101"/>
      <use x="388.799911" xlink:href="#STIXGeneral-Regular-110"/>
      <use x="438.799896" xlink:href="#STIXGeneral-Regular-116"/>
      <use x="466.599884" xlink:href="#STIXGeneral-Regular-32"/>
      <use x="491.599869" xlink:href="#STIXGeneral-Regular-78"/>
      <use x="563.79985" xlink:href="#STIXGeneral-Regular-117"/>
      <use x="613.799835" xlink:href="#STIXGeneral-Regular-109"/>
      <use x="691.599823" xlink:href="#STIXGeneral-Regular-98"/>
      <use x="741.599808" xlink:href="#STIXGeneral-Regular-101"/>
      <use x="785.999802" xlink:href="#STIXGeneral-Regular-114"/>
     </g>
    </g>
   </g>
   <g id="matplotlib.axis_2">
    <g id="ytick_1">
     <g id="line2d_6">
      <defs>
       <path d="M 0 0 
L -2 0 
" id="m3376cdf969" style="stroke:#000000;stroke-width:0.8;"/>
      </defs>
      <g>
       <use style="stroke:#000000;stroke-width:0.8;" x="41.01125" xlink:href="#m3376cdf969" y="220.268821"/>
      </g>
     </g>
     <g id="text_7">
      <!-- 0.3 -->
      <g transform="translate(23.01125 223.683665)scale(0.1 -0.1)">
       <defs>
        <path d="M 18.09375 4.296875 
Q 18.09375 2.09375 16.4375 0.5 
Q 14.796875 -1.09375 12.5 -1.09375 
Q 10.203125 -1.09375 8.59375 0.5 
Q 7 2.09375 7 4.390625 
Q 7 6.703125 8.640625 8.34375 
Q 10.296875 10 12.59375 10 
Q 14.796875 10 16.4375 8.296875 
Q 18.09375 6.59375 18.09375 4.296875 
z
" id="STIXGeneral-Regular-46"/>
       </defs>
       <use xlink:href="#STIXGeneral-Regular-48"/>
       <use x="49.999985" xlink:href="#STIXGeneral-Regular-46"/>
       <use x="74.999969" xlink:href="#STIXGeneral-Regular-51"/>
      </g>
     </g>
    </g>
    <g id="ytick_2">
     <g id="line2d_7">
      <g>
       <use style="stroke:#000000;stroke-width:0.8;" x="41.01125" xlink:href="#m3376cdf969" y="190.426055"/>
      </g>
     </g>
     <g id="text_8">
      <!-- 0.4 -->
      <g transform="translate(23.01125 193.840899)scale(0.1 -0.1)">
       <use xlink:href="#STIXGeneral-Regular-48"/>
       <use x="49.999985" xlink:href="#STIXGeneral-Regular-46"/>
       <use x="74.999969" xlink:href="#STIXGeneral-Regular-52"/>
      </g>
     </g>
    </g>
    <g id="ytick_3">
     <g id="line2d_8">
      <g>
       <use style="stroke:#000000;stroke-width:0.8;" x="41.01125" xlink:href="#m3376cdf969" y="160.583289"/>
      </g>
     </g>
     <g id="text_9">
      <!-- 0.5 -->
      <g transform="translate(23.01125 163.998132)scale(0.1 -0.1)">
       <defs>
        <path d="M 43.796875 68.09375 
L 40.203125 59.59375 
Q 39.59375 58.296875 37.5 58.296875 
L 18.09375 58.296875 
L 14.09375 49.796875 
Q 25.09375 47.703125 30 45.25 
Q 34.90625 42.796875 39.09375 37 
Q 42.59375 32.203125 42.59375 24.296875 
Q 42.59375 17.09375 40.25 12.1875 
Q 37.90625 7.296875 32.796875 3.5 
Q 26 -1.40625 15.796875 -1.40625 
Q 10.09375 -1.40625 6.59375 0.296875 
Q 3.09375 2 3.09375 4.796875 
Q 3.09375 8.59375 7.59375 8.59375 
Q 11.203125 8.59375 15 5.5 
Q 18.90625 2.296875 22.09375 2.296875 
Q 27.296875 2.296875 31.4375 7.5 
Q 35.59375 12.703125 35.59375 19.203125 
Q 35.59375 28.796875 28.90625 34.203125 
Q 20.203125 41.203125 7.59375 41.203125 
Q 6.40625 41.203125 6.40625 42 
L 6.5 42.5 
L 17.40625 66.203125 
L 38.09375 66.203125 
Q 39.796875 66.203125 40.75 66.703125 
Q 41.703125 67.203125 42.90625 68.796875 
z
" id="STIXGeneral-Regular-53"/>
       </defs>
       <use xlink:href="#STIXGeneral-Regular-48"/>
       <use x="49.999985" xlink:href="#STIXGeneral-Regular-46"/>
       <use x="74.999969" xlink:href="#STIXGeneral-Regular-53"/>
      </g>
     </g>
    </g>
    <g id="ytick_4">
     <g id="line2d_9">
      <g>
       <use style="stroke:#000000;stroke-width:0.8;" x="41.01125" xlink:href="#m3376cdf969" y="130.740522"/>
      </g>
     </g>
     <g id="text_10">
      <!-- 0.6 -->
      <g transform="translate(23.01125 134.155366)scale(0.1 -0.1)">
       <defs>
        <path d="M 44.59375 68.40625 
L 44.796875 66.796875 
Q 33 64.90625 25.09375 57.25 
Q 17.203125 49.59375 15.203125 38.296875 
Q 21 42.796875 27.90625 42.796875 
Q 36.703125 42.796875 41.75 37.1875 
Q 46.796875 31.59375 46.796875 21.90625 
Q 46.796875 12.09375 41.703125 5.90625 
Q 35.796875 -1.40625 25.796875 -1.40625 
Q 13.59375 -1.40625 8.09375 8.703125 
Q 3.40625 17.296875 3.40625 27.90625 
Q 3.40625 44.296875 14.296875 55.5 
Q 20.5 61.90625 27.046875 64.546875 
Q 33.59375 67.203125 44.59375 68.40625 
z
M 37.796875 18.796875 
Q 37.796875 38.203125 24.296875 38.203125 
Q 19.296875 38.203125 16 35.546875 
Q 12.703125 32.90625 12.703125 26.59375 
Q 12.703125 14.90625 16.34375 8.15625 
Q 20 1.40625 26.90625 1.40625 
Q 32.203125 1.40625 35 6.15625 
Q 37.796875 10.90625 37.796875 18.796875 
z
" id="STIXGeneral-Regular-54"/>
       </defs>
       <use xlink:href="#STIXGeneral-Regular-48"/>
       <use x="49.999985" xlink:href="#STIXGeneral-Regular-46"/>
       <use x="74.999969" xlink:href="#STIXGeneral-Regular-54"/>
      </g>
     </g>
    </g>
    <g id="ytick_5">
     <g id="line2d_10">
      <g>
       <use style="stroke:#000000;stroke-width:0.8;" x="41.01125" xlink:href="#m3376cdf969" y="100.897756"/>
      </g>
     </g>
     <g id="text_11">
      <!-- 0.7 -->
      <g transform="translate(23.01125 104.3126)scale(0.1 -0.1)">
       <defs>
        <path d="M 44.90625 64.59375 
L 23.703125 -0.796875 
L 17.203125 -0.796875 
L 37 58.796875 
L 15.5 58.796875 
Q 11.203125 58.796875 9.09375 57.296875 
Q 7 55.796875 3.796875 50.59375 
L 2 51.5 
L 8 66.203125 
L 44.90625 66.203125 
z
" id="STIXGeneral-Regular-55"/>
       </defs>
       <use xlink:href="#STIXGeneral-Regular-48"/>
       <use x="49.999985" xlink:href="#STIXGeneral-Regular-46"/>
       <use x="74.999969" xlink:href="#STIXGeneral-Regular-55"/>
      </g>
     </g>
    </g>
    <g id="ytick_6">
     <g id="line2d_11">
      <g>
       <use style="stroke:#000000;stroke-width:0.8;" x="41.01125" xlink:href="#m3376cdf969" y="71.05499"/>
      </g>
     </g>
     <g id="text_12">
      <!-- 0.8 -->
      <g transform="translate(23.01125 74.469834)scale(0.1 -0.1)">
       <defs>
        <path d="M 44.5 15.5 
Q 44.5 7.796875 39.140625 3.1875 
Q 33.796875 -1.40625 24.796875 -1.40625 
Q 16.40625 -1.40625 11 3.1875 
Q 5.59375 7.796875 5.59375 14.90625 
Q 5.59375 20.203125 8.1875 23.953125 
Q 10.796875 27.703125 18.59375 33.203125 
Q 11.09375 39.40625 8.640625 43.203125 
Q 6.203125 47 6.203125 52 
Q 6.203125 59.09375 11.640625 63.34375 
Q 17.09375 67.59375 25.59375 67.59375 
Q 32.90625 67.59375 37.65625 63.4375 
Q 42.40625 59.296875 42.40625 53.296875 
Q 42.40625 47.796875 39.546875 44.5 
Q 36.703125 41.203125 29 37.09375 
Q 38 31.09375 41.25 26.390625 
Q 44.5 21.703125 44.5 15.5 
z
M 35.5 53.296875 
Q 35.5 58.5 32.59375 61.640625 
Q 29.703125 64.796875 24.59375 64.796875 
Q 19.5 64.796875 16.546875 62.140625 
Q 13.59375 59.5 13.59375 54.890625 
Q 13.59375 50.296875 16.546875 46.546875 
Q 19.5 42.796875 26.09375 38.90625 
Q 31.203125 41.90625 33.34375 45.25 
Q 35.5 48.59375 35.5 53.296875 
z
M 27.09375 27.203125 
L 21.203125 31.203125 
Q 16.796875 27.59375 15 24.140625 
Q 13.203125 20.703125 13.203125 15.796875 
Q 13.203125 9 16.640625 5.203125 
Q 20.09375 1.40625 25.90625 1.40625 
Q 30.796875 1.40625 33.84375 4.453125 
Q 36.90625 7.5 36.90625 12.40625 
Q 36.90625 16.90625 34.59375 20.296875 
Q 32.296875 23.703125 27.09375 27.203125 
z
" id="STIXGeneral-Regular-56"/>
       </defs>
       <use xlink:href="#STIXGeneral-Regular-48"/>
       <use x="49.999985" xlink:href="#STIXGeneral-Regular-46"/>
       <use x="74.999969" xlink:href="#STIXGeneral-Regular-56"/>
      </g>
     </g>
    </g>
    <g id="ytick_7">
     <g id="line2d_12">
      <g>
       <use style="stroke:#000000;stroke-width:0.8;" x="41.01125" xlink:href="#m3376cdf969" y="41.212224"/>
      </g>
     </g>
     <g id="text_13">
      <!-- 0.9 -->
      <g transform="translate(23.01125 44.627067)scale(0.1 -0.1)">
       <defs>
        <path d="M 5.90625 -2.203125 
L 5.59375 -0.203125 
Q 17.09375 1.796875 25.046875 9.5 
Q 33 17.203125 36 29.40625 
Q 30.203125 23.703125 21 23.703125 
Q 12.90625 23.703125 7.953125 29.296875 
Q 3 34.90625 3 44 
Q 3 54.09375 8.953125 60.84375 
Q 14.90625 67.59375 23.796875 67.59375 
Q 33.296875 67.59375 39.5 60 
Q 45.90625 52 45.90625 39.40625 
Q 45.90625 30.59375 42.84375 22.84375 
Q 39.796875 15.09375 33.90625 9.703125 
Q 27.703125 4.09375 21.796875 1.640625 
Q 15.90625 -0.796875 5.90625 -2.203125 
z
M 36.203125 35.5 
L 36.203125 39.40625 
Q 36.203125 64.796875 23 64.796875 
Q 18.296875 64.796875 15.703125 61.40625 
Q 14.203125 59.40625 13.203125 55.40625 
Q 12.203125 51.40625 12.203125 47.40625 
Q 12.203125 38.5 15.546875 33.25 
Q 18.90625 28 24.5 28 
Q 28.5 28 32.34375 29.953125 
Q 36.203125 31.90625 36.203125 35.5 
z
" id="STIXGeneral-Regular-57"/>
       </defs>
       <use xlink:href="#STIXGeneral-Regular-48"/>
       <use x="49.999985" xlink:href="#STIXGeneral-Regular-46"/>
       <use x="74.999969" xlink:href="#STIXGeneral-Regular-57"/>
      </g>
     </g>
    </g>
    <g id="text_14">
     <!-- Probability -->
     <g transform="translate(15.395625 160.157187)rotate(-90)scale(0.12 -0.12)">
      <defs>
       <path d="M 1.59375 66.203125 
L 27.5 66.203125 
Q 41.703125 66.203125 49.203125 59.90625 
Q 54.203125 55.703125 54.203125 48 
Q 54.203125 40 48.5 34.90625 
Q 44.296875 31.09375 39.890625 29.9375 
Q 35.5 28.796875 27.09375 28.796875 
Q 24.203125 28.796875 20.203125 29.09375 
L 20.203125 11.203125 
Q 20.203125 5.5 21.84375 3.84375 
Q 23.5 2.203125 29.59375 1.90625 
L 29.59375 0 
L 1.59375 0 
L 1.59375 1.90625 
Q 7.40625 2.296875 8.703125 4 
Q 10 5.703125 10 12.203125 
L 10 55.09375 
Q 10 60.703125 8.546875 62.296875 
Q 7.09375 63.90625 1.59375 64.296875 
z
M 20.203125 58.90625 
L 20.203125 33.09375 
Q 23.59375 32.796875 26.296875 32.796875 
Q 34.40625 32.796875 38.84375 36.75 
Q 43.296875 40.703125 43.296875 47.5 
Q 43.296875 55.59375 38.6875 59.046875 
Q 34.09375 62.5 23.703125 62.5 
Q 21.59375 62.5 20.890625 61.75 
Q 20.203125 61 20.203125 58.90625 
z
" id="STIXGeneral-Regular-80"/>
       <path d="M 47 23.09375 
Q 47 12.59375 40.75 5.796875 
Q 34.5 -1 24.5 -1 
Q 15.296875 -1 9.09375 5.75 
Q 2.90625 12.5 2.90625 22.796875 
Q 2.90625 33.203125 9.09375 39.59375 
Q 15.296875 46 25.40625 46 
Q 34.703125 46 40.84375 39.640625 
Q 47 33.296875 47 23.09375 
z
M 38 20.40625 
Q 38 31.796875 33 38.203125 
Q 29 43.203125 23.5 43.203125 
Q 18.296875 43.203125 15.09375 38.953125 
Q 11.90625 34.703125 11.90625 27.296875 
Q 11.90625 14.5 17.203125 6.796875 
Q 20.59375 1.796875 26.203125 1.796875 
Q 31.703125 1.796875 34.84375 6.75 
Q 38 11.703125 38 20.40625 
z
" id="STIXGeneral-Regular-111"/>
       <path d="M 44.203125 6.59375 
L 44.203125 3.796875 
Q 40.40625 -1 35.203125 -1 
Q 29.5 -1 28.796875 6.296875 
L 28.703125 6.296875 
Q 22.296875 -1 14.203125 -1 
Q 9.5 -1 6.59375 1.75 
Q 3.703125 4.5 3.703125 9.40625 
Q 3.703125 16.40625 10.703125 21.09375 
Q 15.5 24.296875 28.703125 29.203125 
L 28.703125 34.59375 
Q 28.703125 39.09375 26.546875 41.34375 
Q 24.40625 43.59375 20.90625 43.59375 
Q 17.90625 43.59375 15.90625 42.140625 
Q 13.90625 40.703125 13.90625 38.703125 
Q 13.90625 37.796875 14.203125 36.6875 
Q 14.5 35.59375 14.5 34.5 
Q 14.5 33 13.140625 31.703125 
Q 11.796875 30.40625 9.90625 30.40625 
Q 8.203125 30.40625 6.890625 31.703125 
Q 5.59375 33 5.59375 35 
Q 5.59375 39.796875 10.703125 43 
Q 15.40625 46 22.203125 46 
Q 30.296875 46 34 41.5 
Q 35.796875 39.40625 36.296875 37.25 
Q 36.796875 35.09375 36.796875 30.40625 
L 36.796875 11.296875 
Q 36.796875 4.703125 39.90625 4.703125 
Q 41.90625 4.703125 44.203125 6.59375 
z
M 28.703125 12.703125 
L 28.703125 26.796875 
Q 19.5 23.59375 15.90625 20.203125 
Q 12.5 17.09375 12.5 12.5 
Q 12.5 8.703125 14.390625 6.75 
Q 16.296875 4.796875 19.40625 4.796875 
Q 22.703125 4.796875 25.203125 6.40625 
Q 27.296875 7.90625 28 9.203125 
Q 28.703125 10.5 28.703125 12.703125 
z
" id="STIXGeneral-Regular-97"/>
       <path d="M 25.703125 0 
L 2.09375 0 
L 2.09375 1.5 
Q 6.796875 1.90625 8.296875 3.453125 
Q 9.796875 5 9.796875 9.203125 
L 9.796875 56.09375 
Q 9.796875 59.703125 8.890625 61.09375 
Q 8 62.5 5.59375 62.5 
Q 3.5 62.5 1.90625 62.296875 
L 1.90625 63.90625 
Q 11.40625 66.203125 17.703125 68.296875 
L 18.203125 67.90625 
L 18.203125 8.703125 
Q 18.203125 4.5 19.59375 3.140625 
Q 21 1.796875 25.703125 1.5 
z
" id="STIXGeneral-Regular-108"/>
       <path d="M 47.5 45 
L 47.5 43.5 
Q 45.703125 43.296875 44.59375 42.1875 
Q 43.5 41.09375 42.5 38.40625 
L 27.5 -2.5 
Q 23.59375 -13.09375 19.640625 -17.4375 
Q 15.703125 -21.796875 10 -21.796875 
Q 6.796875 -21.796875 4.890625 -20.140625 
Q 3 -18.5 3 -16 
Q 3 -14.09375 4.25 -12.75 
Q 5.5 -11.40625 7.296875 -11.40625 
Q 10.203125 -11.40625 12.5 -12.703125 
Q 13.796875 -13.40625 15.09375 -13.40625 
Q 17.203125 -13.40625 20.09375 -9 
Q 21.5 -7 22.796875 -3.296875 
Q 24.09375 0.40625 24.09375 1.796875 
Q 24.09375 3.09375 19.90625 11.90625 
L 6.703125 40.09375 
Q 5.40625 43 1.40625 43.59375 
L 1.40625 45 
L 21.90625 45 
L 21.90625 43.5 
Q 18.703125 43.40625 17.453125 42.796875 
Q 16.203125 42.203125 16.203125 40.796875 
Q 16.203125 39.703125 17.5 36.703125 
L 28.703125 11.703125 
L 38.40625 39.296875 
Q 38.796875 40.203125 38.796875 41.09375 
Q 38.796875 43.5 34.203125 43.5 
L 34.203125 45 
z
" id="STIXGeneral-Regular-121"/>
      </defs>
      <use xlink:href="#STIXGeneral-Regular-80"/>
      <use x="55.699997" xlink:href="#STIXGeneral-Regular-114"/>
      <use x="88.999985" xlink:href="#STIXGeneral-Regular-111"/>
      <use x="138.999969" xlink:href="#STIXGeneral-Regular-98"/>
      <use x="188.999954" xlink:href="#STIXGeneral-Regular-97"/>
      <use x="233.399948" xlink:href="#STIXGeneral-Regular-98"/>
      <use x="283.399933" xlink:href="#STIXGeneral-Regular-105"/>
      <use x="311.199921" xlink:href="#STIXGeneral-Regular-108"/>
      <use x="338.999908" xlink:href="#STIXGeneral-Regular-105"/>
      <use x="366.799896" xlink:href="#STIXGeneral-Regular-116"/>
      <use x="394.599884" xlink:href="#STIXGeneral-Regular-121"/>
     </g>
    </g>
   </g>
   <g id="line2d_13">
    <path clip-path="url(#p7fbe4fb25e)" d="M 56.229432 160.583289 
L 64.033628 147.199183 
L 71.837823 145.87418 
L 79.642019 144.539464 
L 87.446215 143.195077 
L 95.250411 130.546167 
L 103.054607 136.378148 
L 110.858802 124.501026 
L 118.662998 113.979673 
L 126.467194 126.72184 
L 134.27139 138.73146 
L 142.075586 126.587328 
L 149.879781 115.826913 
L 157.683977 128.46882 
L 165.488173 117.493126 
L 173.292369 130.042699 
L 181.096565 117.986769 
L 188.90076 104.34661 
L 196.704956 124.637379 
L 204.509152 143.03374 
L 212.313348 126.860963 
L 220.117544 112.737442 
L 227.92174 142.698049 
L 235.725935 167.547508 
L 243.530131 158.26494 
L 251.334327 175.269713 
L 259.138523 135.49328 
L 266.942719 104.353602 
L 274.746914 80.888655 
L 282.55111 111.185368 
L 290.355306 85.091281 
L 298.159502 68.109706 
L 305.963698 56.916291 
L 313.767893 49.490557 
L 321.572089 118.532171 
L 329.376285 89.811489 
L 337.180481 71.203155 
L 344.984677 58.962228 
L 352.788872 50.850353 
L 360.593068 45.452778 
" style="fill:none;stroke:#1f77b4;stroke-dasharray:5.12,1.28,0.8,1.28;stroke-dashoffset:0;stroke-width:0.8;"/>
    <defs>
     <path d="M 0 1.5 
C 0.397805 1.5 0.77937 1.341951 1.06066 1.06066 
C 1.341951 0.77937 1.5 0.397805 1.5 0 
C 1.5 -0.397805 1.341951 -0.77937 1.06066 -1.06066 
C 0.77937 -1.341951 0.397805 -1.5 0 -1.5 
C -0.397805 -1.5 -0.77937 -1.341951 -1.06066 -1.06066 
C -1.341951 -0.77937 -1.5 -0.397805 -1.5 0 
C -1.5 0.397805 -1.341951 0.77937 -1.06066 1.06066 
C -0.77937 1.341951 -0.397805 1.5 0 1.5 
z
" id="m53cf20b4b1" style="stroke:#1f77b4;"/>
    </defs>
    <g clip-path="url(#p7fbe4fb25e)">
     <use style="fill:#1f77b4;stroke:#1f77b4;" x="56.229432" xlink:href="#m53cf20b4b1" y="160.583289"/>
     <use style="fill:#1f77b4;stroke:#1f77b4;" x="64.033628" xlink:href="#m53cf20b4b1" y="147.199183"/>
     <use style="fill:#1f77b4;stroke:#1f77b4;" x="71.837823" xlink:href="#m53cf20b4b1" y="145.87418"/>
     <use style="fill:#1f77b4;stroke:#1f77b4;" x="79.642019" xlink:href="#m53cf20b4b1" y="144.539464"/>
     <use style="fill:#1f77b4;stroke:#1f77b4;" x="87.446215" xlink:href="#m53cf20b4b1" y="143.195077"/>
     <use style="fill:#1f77b4;stroke:#1f77b4;" x="95.250411" xlink:href="#m53cf20b4b1" y="130.546167"/>
     <use style="fill:#1f77b4;stroke:#1f77b4;" x="103.054607" xlink:href="#m53cf20b4b1" y="136.378148"/>
     <use style="fill:#1f77b4;stroke:#1f77b4;" x="110.858802" xlink:href="#m53cf20b4b1" y="124.501026"/>
     <use style="fill:#1f77b4;stroke:#1f77b4;" x="118.662998" xlink:href="#m53cf20b4b1" y="113.979673"/>
     <use style="fill:#1f77b4;stroke:#1f77b4;" x="126.467194" xlink:href="#m53cf20b4b1" y="126.72184"/>
     <use style="fill:#1f77b4;stroke:#1f77b4;" x="134.27139" xlink:href="#m53cf20b4b1" y="138.73146"/>
     <use style="fill:#1f77b4;stroke:#1f77b4;" x="142.075586" xlink:href="#m53cf20b4b1" y="126.587328"/>
     <use style="fill:#1f77b4;stroke:#1f77b4;" x="149.879781" xlink:href="#m53cf20b4b1" y="115.826913"/>
     <use style="fill:#1f77b4;stroke:#1f77b4;" x="157.683977" xlink:href="#m53cf20b4b1" y="128.46882"/>
     <use style="fill:#1f77b4;stroke:#1f77b4;" x="165.488173" xlink:href="#m53cf20b4b1" y="117.493126"/>
     <use style="fill:#1f77b4;stroke:#1f77b4;" x="173.292369" xlink:href="#m53cf20b4b1" y="130.042699"/>
     <use style="fill:#1f77b4;stroke:#1f77b4;" x="181.096565" xlink:href="#m53cf20b4b1" y="117.986769"/>
     <use style="fill:#1f77b4;stroke:#1f77b4;" x="188.90076" xlink:href="#m53cf20b4b1" y="104.34661"/>
     <use style="fill:#1f77b4;stroke:#1f77b4;" x="196.704956" xlink:href="#m53cf20b4b1" y="124.637379"/>
     <use style="fill:#1f77b4;stroke:#1f77b4;" x="204.509152" xlink:href="#m53cf20b4b1" y="143.03374"/>
     <use style="fill:#1f77b4;stroke:#1f77b4;" x="212.313348" xlink:href="#m53cf20b4b1" y="126.860963"/>
     <use style="fill:#1f77b4;stroke:#1f77b4;" x="220.117544" xlink:href="#m53cf20b4b1" y="112.737442"/>
     <use style="fill:#1f77b4;stroke:#1f77b4;" x="227.92174" xlink:href="#m53cf20b4b1" y="142.698049"/>
     <use style="fill:#1f77b4;stroke:#1f77b4;" x="235.725935" xlink:href="#m53cf20b4b1" y="167.547508"/>
     <use style="fill:#1f77b4;stroke:#1f77b4;" x="243.530131" xlink:href="#m53cf20b4b1" y="158.26494"/>
     <use style="fill:#1f77b4;stroke:#1f77b4;" x="251.334327" xlink:href="#m53cf20b4b1" y="175.269713"/>
     <use style="fill:#1f77b4;stroke:#1f77b4;" x="259.138523" xlink:href="#m53cf20b4b1" y="135.49328"/>
     <use style="fill:#1f77b4;stroke:#1f77b4;" x="266.942719" xlink:href="#m53cf20b4b1" y="104.353602"/>
     <use style="fill:#1f77b4;stroke:#1f77b4;" x="274.746914" xlink:href="#m53cf20b4b1" y="80.888655"/>
     <use style="fill:#1f77b4;stroke:#1f77b4;" x="282.55111" xlink:href="#m53cf20b4b1" y="111.185368"/>
     <use style="fill:#1f77b4;stroke:#1f77b4;" x="290.355306" xlink:href="#m53cf20b4b1" y="85.091281"/>
     <use style="fill:#1f77b4;stroke:#1f77b4;" x="298.159502" xlink:href="#m53cf20b4b1" y="68.109706"/>
     <use style="fill:#1f77b4;stroke:#1f77b4;" x="305.963698" xlink:href="#m53cf20b4b1" y="56.916291"/>
     <use style="fill:#1f77b4;stroke:#1f77b4;" x="313.767893" xlink:href="#m53cf20b4b1" y="49.490557"/>
     <use style="fill:#1f77b4;stroke:#1f77b4;" x="321.572089" xlink:href="#m53cf20b4b1" y="118.532171"/>
     <use style="fill:#1f77b4;stroke:#1f77b4;" x="329.376285" xlink:href="#m53cf20b4b1" y="89.811489"/>
     <use style="fill:#1f77b4;stroke:#1f77b4;" x="337.180481" xlink:href="#m53cf20b4b1" y="71.203155"/>
     <use style="fill:#1f77b4;stroke:#1f77b4;" x="344.984677" xlink:href="#m53cf20b4b1" y="58.962228"/>
     <use style="fill:#1f77b4;stroke:#1f77b4;" x="352.788872" xlink:href="#m53cf20b4b1" y="50.850353"/>
     <use style="fill:#1f77b4;stroke:#1f77b4;" x="360.593068" xlink:href="#m53cf20b4b1" y="45.452778"/>
    </g>
   </g>
   <g id="line2d_14">
    <path clip-path="url(#p7fbe4fb25e)" d="M 56.229432 160.583289 
L 64.033628 163.025671 
L 71.837823 177.346117 
L 79.642019 190.065566 
L 87.446215 192.926338 
L 95.250411 203.875893 
L 103.054607 197.696393 
L 110.858802 208.099493 
L 118.662998 188.586985 
L 126.467194 200.031928 
L 134.27139 210.166795 
L 142.075586 190.464039 
L 149.879781 172.680522 
L 157.683977 156.769881 
L 165.488173 171.779625 
L 173.292369 185.124791 
L 181.096565 166.435255 
L 188.90076 186.062683 
L 196.704956 202.495926 
L 204.509152 181.867972 
L 212.313348 232.317926 
L 220.117544 185.27023 
L 227.92174 150.491964 
L 235.725935 124.089926 
L 243.530131 103.84478 
L 251.334327 88.245568 
L 259.138523 135.460969 
L 266.942719 111.689217 
L 274.746914 93.633415 
L 282.55111 78.515681 
L 290.355306 63.786729 
L 298.159502 54.052496 
L 305.963698 47.585403 
L 313.767893 43.275829 
L 321.572089 40.39867 
L 329.376285 38.475574 
L 337.180481 37.189208 
L 344.984677 36.32833 
L 352.788872 35.752016 
L 360.593068 35.366121 
" style="fill:none;stroke:#ff7f0e;stroke-dasharray:5.12,1.28,0.8,1.28;stroke-dashoffset:0;stroke-width:0.8;"/>
    <defs>
     <path d="M 0 1.5 
C 0.397805 1.5 0.77937 1.341951 1.06066 1.06066 
C 1.341951 0.77937 1.5 0.397805 1.5 0 
C 1.5 -0.397805 1.341951 -0.77937 1.06066 -1.06066 
C 0.77937 -1.341951 0.397805 -1.5 0 -1.5 
C -0.397805 -1.5 -0.77937 -1.341951 -1.06066 -1.06066 
C -1.341951 -0.77937 -1.5 -0.397805 -1.5 0 
C -1.5 0.397805 -1.341951 0.77937 -1.06066 1.06066 
C -0.77937 1.341951 -0.397805 1.5 0 1.5 
z
" id="mbb0920313e" style="stroke:#ff7f0e;"/>
    </defs>
    <g clip-path="url(#p7fbe4fb25e)">
     <use style="fill:#ff7f0e;stroke:#ff7f0e;" x="56.229432" xlink:href="#mbb0920313e" y="160.583289"/>
     <use style="fill:#ff7f0e;stroke:#ff7f0e;" x="64.033628" xlink:href="#mbb0920313e" y="163.025671"/>
     <use style="fill:#ff7f0e;stroke:#ff7f0e;" x="71.837823" xlink:href="#mbb0920313e" y="177.346117"/>
     <use style="fill:#ff7f0e;stroke:#ff7f0e;" x="79.642019" xlink:href="#mbb0920313e" y="190.065566"/>
     <use style="fill:#ff7f0e;stroke:#ff7f0e;" x="87.446215" xlink:href="#mbb0920313e" y="192.926338"/>
     <use style="fill:#ff7f0e;stroke:#ff7f0e;" x="95.250411" xlink:href="#mbb0920313e" y="203.875893"/>
     <use style="fill:#ff7f0e;stroke:#ff7f0e;" x="103.054607" xlink:href="#mbb0920313e" y="197.696393"/>
     <use style="fill:#ff7f0e;stroke:#ff7f0e;" x="110.858802" xlink:href="#mbb0920313e" y="208.099493"/>
     <use style="fill:#ff7f0e;stroke:#ff7f0e;" x="118.662998" xlink:href="#mbb0920313e" y="188.586985"/>
     <use style="fill:#ff7f0e;stroke:#ff7f0e;" x="126.467194" xlink:href="#mbb0920313e" y="200.031928"/>
     <use style="fill:#ff7f0e;stroke:#ff7f0e;" x="134.27139" xlink:href="#mbb0920313e" y="210.166795"/>
     <use style="fill:#ff7f0e;stroke:#ff7f0e;" x="142.075586" xlink:href="#mbb0920313e" y="190.464039"/>
     <use style="fill:#ff7f0e;stroke:#ff7f0e;" x="149.879781" xlink:href="#mbb0920313e" y="172.680522"/>
     <use style="fill:#ff7f0e;stroke:#ff7f0e;" x="157.683977" xlink:href="#mbb0920313e" y="156.769881"/>
     <use style="fill:#ff7f0e;stroke:#ff7f0e;" x="165.488173" xlink:href="#mbb0920313e" y="171.779625"/>
     <use style="fill:#ff7f0e;stroke:#ff7f0e;" x="173.292369" xlink:href="#mbb0920313e" y="185.124791"/>
     <use style="fill:#ff7f0e;stroke:#ff7f0e;" x="181.096565" xlink:href="#mbb0920313e" y="166.435255"/>
     <use style="fill:#ff7f0e;stroke:#ff7f0e;" x="188.90076" xlink:href="#mbb0920313e" y="186.062683"/>
     <use style="fill:#ff7f0e;stroke:#ff7f0e;" x="196.704956" xlink:href="#mbb0920313e" y="202.495926"/>
     <use style="fill:#ff7f0e;stroke:#ff7f0e;" x="204.509152" xlink:href="#mbb0920313e" y="181.867972"/>
     <use style="fill:#ff7f0e;stroke:#ff7f0e;" x="212.313348" xlink:href="#mbb0920313e" y="232.317926"/>
     <use style="fill:#ff7f0e;stroke:#ff7f0e;" x="220.117544" xlink:href="#mbb0920313e" y="185.27023"/>
     <use style="fill:#ff7f0e;stroke:#ff7f0e;" x="227.92174" xlink:href="#mbb0920313e" y="150.491964"/>
     <use style="fill:#ff7f0e;stroke:#ff7f0e;" x="235.725935" xlink:href="#mbb0920313e" y="124.089926"/>
     <use style="fill:#ff7f0e;stroke:#ff7f0e;" x="243.530131" xlink:href="#mbb0920313e" y="103.84478"/>
     <use style="fill:#ff7f0e;stroke:#ff7f0e;" x="251.334327" xlink:href="#mbb0920313e" y="88.245568"/>
     <use style="fill:#ff7f0e;stroke:#ff7f0e;" x="259.138523" xlink:href="#mbb0920313e" y="135.460969"/>
     <use style="fill:#ff7f0e;stroke:#ff7f0e;" x="266.942719" xlink:href="#mbb0920313e" y="111.689217"/>
     <use style="fill:#ff7f0e;stroke:#ff7f0e;" x="274.746914" xlink:href="#mbb0920313e" y="93.633415"/>
     <use style="fill:#ff7f0e;stroke:#ff7f0e;" x="282.55111" xlink:href="#mbb0920313e" y="78.515681"/>
     <use style="fill:#ff7f0e;stroke:#ff7f0e;" x="290.355306" xlink:href="#mbb0920313e" y="63.786729"/>
     <use style="fill:#ff7f0e;stroke:#ff7f0e;" x="298.159502" xlink:href="#mbb0920313e" y="54.052496"/>
     <use style="fill:#ff7f0e;stroke:#ff7f0e;" x="305.963698" xlink:href="#mbb0920313e" y="47.585403"/>
     <use style="fill:#ff7f0e;stroke:#ff7f0e;" x="313.767893" xlink:href="#mbb0920313e" y="43.275829"/>
     <use style="fill:#ff7f0e;stroke:#ff7f0e;" x="321.572089" xlink:href="#mbb0920313e" y="40.39867"/>
     <use style="fill:#ff7f0e;stroke:#ff7f0e;" x="329.376285" xlink:href="#mbb0920313e" y="38.475574"/>
     <use style="fill:#ff7f0e;stroke:#ff7f0e;" x="337.180481" xlink:href="#mbb0920313e" y="37.189208"/>
     <use style="fill:#ff7f0e;stroke:#ff7f0e;" x="344.984677" xlink:href="#mbb0920313e" y="36.32833"/>
     <use style="fill:#ff7f0e;stroke:#ff7f0e;" x="352.788872" xlink:href="#mbb0920313e" y="35.752016"/>
     <use style="fill:#ff7f0e;stroke:#ff7f0e;" x="360.593068" xlink:href="#mbb0920313e" y="35.366121"/>
    </g>
   </g>
   <g id="line2d_15">
    <path clip-path="url(#p7fbe4fb25e)" d="M 56.229432 160.583289 
L 64.033628 145.992899 
L 71.837823 144.659049 
L 79.642019 131.845086 
L 87.446215 130.415079 
L 95.250411 119.217025 
L 103.054607 109.302707 
L 110.858802 100.532788 
L 118.662998 121.140853 
L 126.467194 111.005273 
L 134.27139 102.038364 
L 142.075586 122.523113 
L 149.879781 112.228732 
L 157.683977 103.120381 
L 165.488173 95.067239 
L 173.292369 87.950945 
L 181.096565 81.167993 
L 188.90076 73.546304 
L 196.704956 67.171347 
L 204.509152 61.839299 
L 212.313348 57.138873 
L 220.117544 53.24939 
L 227.92174 50.030834 
L 235.725935 47.367401 
L 243.530131 44.833158 
L 251.334327 42.801655 
L 259.138523 41.173028 
L 266.942719 39.867297 
L 274.746914 38.820391 
L 282.55111 37.980971 
L 290.355306 36.858243 
L 298.159502 36.106784 
L 305.963698 35.603679 
L 313.767893 35.266785 
L 321.572089 35.041163 
L 329.376285 34.890049 
L 337.180481 34.788832 
L 344.984677 34.721034 
L 352.788872 34.67562 
L 360.593068 34.645199 
" style="fill:none;stroke:#2ca02c;stroke-dasharray:5.12,1.28,0.8,1.28;stroke-dashoffset:0;stroke-width:0.8;"/>
    <defs>
     <path d="M 0 1.5 
C 0.397805 1.5 0.77937 1.341951 1.06066 1.06066 
C 1.341951 0.77937 1.5 0.397805 1.5 0 
C 1.5 -0.397805 1.341951 -0.77937 1.06066 -1.06066 
C 0.77937 -1.341951 0.397805 -1.5 0 -1.5 
C -0.397805 -1.5 -0.77937 -1.341951 -1.06066 -1.06066 
C -1.341951 -0.77937 -1.5 -0.397805 -1.5 0 
C -1.5 0.397805 -1.341951 0.77937 -1.06066 1.06066 
C -0.77937 1.341951 -0.397805 1.5 0 1.5 
z
" id="mb4319dfb99" style="stroke:#2ca02c;"/>
    </defs>
    <g clip-path="url(#p7fbe4fb25e)">
     <use style="fill:#2ca02c;stroke:#2ca02c;" x="56.229432" xlink:href="#mb4319dfb99" y="160.583289"/>
     <use style="fill:#2ca02c;stroke:#2ca02c;" x="64.033628" xlink:href="#mb4319dfb99" y="145.992899"/>
     <use style="fill:#2ca02c;stroke:#2ca02c;" x="71.837823" xlink:href="#mb4319dfb99" y="144.659049"/>
     <use style="fill:#2ca02c;stroke:#2ca02c;" x="79.642019" xlink:href="#mb4319dfb99" y="131.845086"/>
     <use style="fill:#2ca02c;stroke:#2ca02c;" x="87.446215" xlink:href="#mb4319dfb99" y="130.415079"/>
     <use style="fill:#2ca02c;stroke:#2ca02c;" x="95.250411" xlink:href="#mb4319dfb99" y="119.217025"/>
     <use style="fill:#2ca02c;stroke:#2ca02c;" x="103.054607" xlink:href="#mb4319dfb99" y="109.302707"/>
     <use style="fill:#2ca02c;stroke:#2ca02c;" x="110.858802" xlink:href="#mb4319dfb99" y="100.532788"/>
     <use style="fill:#2ca02c;stroke:#2ca02c;" x="118.662998" xlink:href="#mb4319dfb99" y="121.140853"/>
     <use style="fill:#2ca02c;stroke:#2ca02c;" x="126.467194" xlink:href="#mb4319dfb99" y="111.005273"/>
     <use style="fill:#2ca02c;stroke:#2ca02c;" x="134.27139" xlink:href="#mb4319dfb99" y="102.038364"/>
     <use style="fill:#2ca02c;stroke:#2ca02c;" x="142.075586" xlink:href="#mb4319dfb99" y="122.523113"/>
     <use style="fill:#2ca02c;stroke:#2ca02c;" x="149.879781" xlink:href="#mb4319dfb99" y="112.228732"/>
     <use style="fill:#2ca02c;stroke:#2ca02c;" x="157.683977" xlink:href="#mb4319dfb99" y="103.120381"/>
     <use style="fill:#2ca02c;stroke:#2ca02c;" x="165.488173" xlink:href="#mb4319dfb99" y="95.067239"/>
     <use style="fill:#2ca02c;stroke:#2ca02c;" x="173.292369" xlink:href="#mb4319dfb99" y="87.950945"/>
     <use style="fill:#2ca02c;stroke:#2ca02c;" x="181.096565" xlink:href="#mb4319dfb99" y="81.167993"/>
     <use style="fill:#2ca02c;stroke:#2ca02c;" x="188.90076" xlink:href="#mb4319dfb99" y="73.546304"/>
     <use style="fill:#2ca02c;stroke:#2ca02c;" x="196.704956" xlink:href="#mb4319dfb99" y="67.171347"/>
     <use style="fill:#2ca02c;stroke:#2ca02c;" x="204.509152" xlink:href="#mb4319dfb99" y="61.839299"/>
     <use style="fill:#2ca02c;stroke:#2ca02c;" x="212.313348" xlink:href="#mb4319dfb99" y="57.138873"/>
     <use style="fill:#2ca02c;stroke:#2ca02c;" x="220.117544" xlink:href="#mb4319dfb99" y="53.24939"/>
     <use style="fill:#2ca02c;stroke:#2ca02c;" x="227.92174" xlink:href="#mb4319dfb99" y="50.030834"/>
     <use style="fill:#2ca02c;stroke:#2ca02c;" x="235.725935" xlink:href="#mb4319dfb99" y="47.367401"/>
     <use style="fill:#2ca02c;stroke:#2ca02c;" x="243.530131" xlink:href="#mb4319dfb99" y="44.833158"/>
     <use style="fill:#2ca02c;stroke:#2ca02c;" x="251.334327" xlink:href="#mb4319dfb99" y="42.801655"/>
     <use style="fill:#2ca02c;stroke:#2ca02c;" x="259.138523" xlink:href="#mb4319dfb99" y="41.173028"/>
     <use style="fill:#2ca02c;stroke:#2ca02c;" x="266.942719" xlink:href="#mb4319dfb99" y="39.867297"/>
     <use style="fill:#2ca02c;stroke:#2ca02c;" x="274.746914" xlink:href="#mb4319dfb99" y="38.820391"/>
     <use style="fill:#2ca02c;stroke:#2ca02c;" x="282.55111" xlink:href="#mb4319dfb99" y="37.980971"/>
     <use style="fill:#2ca02c;stroke:#2ca02c;" x="290.355306" xlink:href="#mb4319dfb99" y="36.858243"/>
     <use style="fill:#2ca02c;stroke:#2ca02c;" x="298.159502" xlink:href="#mb4319dfb99" y="36.106784"/>
     <use style="fill:#2ca02c;stroke:#2ca02c;" x="305.963698" xlink:href="#mb4319dfb99" y="35.603679"/>
     <use style="fill:#2ca02c;stroke:#2ca02c;" x="313.767893" xlink:href="#mb4319dfb99" y="35.266785"/>
     <use style="fill:#2ca02c;stroke:#2ca02c;" x="321.572089" xlink:href="#mb4319dfb99" y="35.041163"/>
     <use style="fill:#2ca02c;stroke:#2ca02c;" x="329.376285" xlink:href="#mb4319dfb99" y="34.890049"/>
     <use style="fill:#2ca02c;stroke:#2ca02c;" x="337.180481" xlink:href="#mb4319dfb99" y="34.788832"/>
     <use style="fill:#2ca02c;stroke:#2ca02c;" x="344.984677" xlink:href="#mb4319dfb99" y="34.721034"/>
     <use style="fill:#2ca02c;stroke:#2ca02c;" x="352.788872" xlink:href="#mb4319dfb99" y="34.67562"/>
     <use style="fill:#2ca02c;stroke:#2ca02c;" x="360.593068" xlink:href="#mb4319dfb99" y="34.645199"/>
    </g>
   </g>
   <g id="line2d_16">
    <path clip-path="url(#p7fbe4fb25e)" d="M 56.229432 160.583289 
L 64.033628 158.140906 
L 71.837823 156.899981 
L 79.642019 142.717071 
L 87.446215 130.122108 
L 95.250411 118.957505 
L 103.054607 109.073055 
L 110.858802 100.329721 
L 118.662998 92.60084 
L 126.467194 85.772125 
L 134.27139 84.2045 
L 142.075586 78.356867 
L 149.879781 90.385286 
L 157.683977 102.304556 
L 165.488173 94.346165 
L 173.292369 106.171466 
L 181.096565 97.094165 
L 188.90076 86.868045 
L 196.704956 78.314087 
L 204.509152 90.342286 
L 212.313348 80.721273 
L 220.117544 92.754074 
L 227.92174 82.716456 
L 235.725935 74.412453 
L 243.530131 117.68616 
L 251.334327 101.844382 
L 259.138523 89.039182 
L 266.942719 78.68166 
L 274.746914 70.300057 
L 282.55111 63.515145 
L 290.355306 53.872407 
L 298.159502 47.46553 
L 305.963698 43.195855 
L 313.767893 40.345239 
L 321.572089 38.439844 
L 329.376285 37.165301 
L 337.180481 72.136273 
L 344.984677 59.578803 
L 352.788872 51.259936 
L 360.593068 45.725697 
" style="fill:none;stroke:#d62728;stroke-dasharray:5.12,1.28,0.8,1.28;stroke-dashoffset:0;stroke-width:0.8;"/>
    <defs>
     <path d="M 0 1.5 
C 0.397805 1.5 0.77937 1.341951 1.06066 1.06066 
C 1.341951 0.77937 1.5 0.397805 1.5 0 
C 1.5 -0.397805 1.341951 -0.77937 1.06066 -1.06066 
C 0.77937 -1.341951 0.397805 -1.5 0 -1.5 
C -0.397805 -1.5 -0.77937 -1.341951 -1.06066 -1.06066 
C -1.341951 -0.77937 -1.5 -0.397805 -1.5 0 
C -1.5 0.397805 -1.341951 0.77937 -1.06066 1.06066 
C -0.77937 1.341951 -0.397805 1.5 0 1.5 
z
" id="mfbc9eb2909" style="stroke:#d62728;"/>
    </defs>
    <g clip-path="url(#p7fbe4fb25e)">
     <use style="fill:#d62728;stroke:#d62728;" x="56.229432" xlink:href="#mfbc9eb2909" y="160.583289"/>
     <use style="fill:#d62728;stroke:#d62728;" x="64.033628" xlink:href="#mfbc9eb2909" y="158.140906"/>
     <use style="fill:#d62728;stroke:#d62728;" x="71.837823" xlink:href="#mfbc9eb2909" y="156.899981"/>
     <use style="fill:#d62728;stroke:#d62728;" x="79.642019" xlink:href="#mfbc9eb2909" y="142.717071"/>
     <use style="fill:#d62728;stroke:#d62728;" x="87.446215" xlink:href="#mfbc9eb2909" y="130.122108"/>
     <use style="fill:#d62728;stroke:#d62728;" x="95.250411" xlink:href="#mfbc9eb2909" y="118.957505"/>
     <use style="fill:#d62728;stroke:#d62728;" x="103.054607" xlink:href="#mfbc9eb2909" y="109.073055"/>
     <use style="fill:#d62728;stroke:#d62728;" x="110.858802" xlink:href="#mfbc9eb2909" y="100.329721"/>
     <use style="fill:#d62728;stroke:#d62728;" x="118.662998" xlink:href="#mfbc9eb2909" y="92.60084"/>
     <use style="fill:#d62728;stroke:#d62728;" x="126.467194" xlink:href="#mfbc9eb2909" y="85.772125"/>
     <use style="fill:#d62728;stroke:#d62728;" x="134.27139" xlink:href="#mfbc9eb2909" y="84.2045"/>
     <use style="fill:#d62728;stroke:#d62728;" x="142.075586" xlink:href="#mfbc9eb2909" y="78.356867"/>
     <use style="fill:#d62728;stroke:#d62728;" x="149.879781" xlink:href="#mfbc9eb2909" y="90.385286"/>
     <use style="fill:#d62728;stroke:#d62728;" x="157.683977" xlink:href="#mfbc9eb2909" y="102.304556"/>
     <use style="fill:#d62728;stroke:#d62728;" x="165.488173" xlink:href="#mfbc9eb2909" y="94.346165"/>
     <use style="fill:#d62728;stroke:#d62728;" x="173.292369" xlink:href="#mfbc9eb2909" y="106.171466"/>
     <use style="fill:#d62728;stroke:#d62728;" x="181.096565" xlink:href="#mfbc9eb2909" y="97.094165"/>
     <use style="fill:#d62728;stroke:#d62728;" x="188.90076" xlink:href="#mfbc9eb2909" y="86.868045"/>
     <use style="fill:#d62728;stroke:#d62728;" x="196.704956" xlink:href="#mfbc9eb2909" y="78.314087"/>
     <use style="fill:#d62728;stroke:#d62728;" x="204.509152" xlink:href="#mfbc9eb2909" y="90.342286"/>
     <use style="fill:#d62728;stroke:#d62728;" x="212.313348" xlink:href="#mfbc9eb2909" y="80.721273"/>
     <use style="fill:#d62728;stroke:#d62728;" x="220.117544" xlink:href="#mfbc9eb2909" y="92.754074"/>
     <use style="fill:#d62728;stroke:#d62728;" x="227.92174" xlink:href="#mfbc9eb2909" y="82.716456"/>
     <use style="fill:#d62728;stroke:#d62728;" x="235.725935" xlink:href="#mfbc9eb2909" y="74.412453"/>
     <use style="fill:#d62728;stroke:#d62728;" x="243.530131" xlink:href="#mfbc9eb2909" y="117.68616"/>
     <use style="fill:#d62728;stroke:#d62728;" x="251.334327" xlink:href="#mfbc9eb2909" y="101.844382"/>
     <use style="fill:#d62728;stroke:#d62728;" x="259.138523" xlink:href="#mfbc9eb2909" y="89.039182"/>
     <use style="fill:#d62728;stroke:#d62728;" x="266.942719" xlink:href="#mfbc9eb2909" y="78.68166"/>
     <use style="fill:#d62728;stroke:#d62728;" x="274.746914" xlink:href="#mfbc9eb2909" y="70.300057"/>
     <use style="fill:#d62728;stroke:#d62728;" x="282.55111" xlink:href="#mfbc9eb2909" y="63.515145"/>
     <use style="fill:#d62728;stroke:#d62728;" x="290.355306" xlink:href="#mfbc9eb2909" y="53.872407"/>
     <use style="fill:#d62728;stroke:#d62728;" x="298.159502" xlink:href="#mfbc9eb2909" y="47.46553"/>
     <use style="fill:#d62728;stroke:#d62728;" x="305.963698" xlink:href="#mfbc9eb2909" y="43.195855"/>
     <use style="fill:#d62728;stroke:#d62728;" x="313.767893" xlink:href="#mfbc9eb2909" y="40.345239"/>
     <use style="fill:#d62728;stroke:#d62728;" x="321.572089" xlink:href="#mfbc9eb2909" y="38.439844"/>
     <use style="fill:#d62728;stroke:#d62728;" x="329.376285" xlink:href="#mfbc9eb2909" y="37.165301"/>
     <use style="fill:#d62728;stroke:#d62728;" x="337.180481" xlink:href="#mfbc9eb2909" y="72.136273"/>
     <use style="fill:#d62728;stroke:#d62728;" x="344.984677" xlink:href="#mfbc9eb2909" y="59.578803"/>
     <use style="fill:#d62728;stroke:#d62728;" x="352.788872" xlink:href="#mfbc9eb2909" y="51.259936"/>
     <use style="fill:#d62728;stroke:#d62728;" x="360.593068" xlink:href="#mfbc9eb2909" y="45.725697"/>
    </g>
   </g>
   <g id="line2d_17">
    <path clip-path="url(#p7fbe4fb25e)" d="M 56.229432 160.583289 
L 64.033628 163.025671 
L 71.837823 148.166387 
L 79.642019 150.810036 
L 87.446215 137.305559 
L 95.250411 125.323142 
L 103.054607 131.298983 
L 110.858802 120.000056 
L 118.662998 109.995647 
L 126.467194 101.145532 
L 134.27139 93.321813 
L 142.075586 101.642467 
L 149.879781 113.241596 
L 157.683977 104.016224 
L 165.488173 95.85908 
L 173.292369 107.642714 
L 181.096565 129.417568 
L 188.90076 113.91163 
L 196.704956 100.93706 
L 204.509152 123.360405 
L 212.313348 92.159733 
L 220.117544 102.238978 
L 227.92174 87.006085 
L 235.725935 75.234699 
L 243.530131 66.123489 
L 251.334327 59.063718 
L 259.138523 85.227604 
L 266.942719 73.433721 
L 274.746914 64.405218 
L 282.55111 90.938015 
L 290.355306 71.940164 
L 298.159502 128.143476 
L 305.963698 167.312946 
L 313.767893 196.230756 
L 321.572089 136.365937 
L 329.376285 101.123248 
L 337.180481 78.579563 
L 344.984677 63.828798 
L 352.788872 128.552329 
L 360.593068 96.195211 
" style="fill:none;stroke:#9467bd;stroke-dasharray:5.12,1.28,0.8,1.28;stroke-dashoffset:0;stroke-width:0.8;"/>
    <defs>
     <path d="M 0 1.5 
C 0.397805 1.5 0.77937 1.341951 1.06066 1.06066 
C 1.341951 0.77937 1.5 0.397805 1.5 0 
C 1.5 -0.397805 1.341951 -0.77937 1.06066 -1.06066 
C 0.77937 -1.341951 0.397805 -1.5 0 -1.5 
C -0.397805 -1.5 -0.77937 -1.341951 -1.06066 -1.06066 
C -1.341951 -0.77937 -1.5 -0.397805 -1.5 0 
C -1.5 0.397805 -1.341951 0.77937 -1.06066 1.06066 
C -0.77937 1.341951 -0.397805 1.5 0 1.5 
z
" id="m6e22ef6c96" style="stroke:#9467bd;"/>
    </defs>
    <g clip-path="url(#p7fbe4fb25e)">
     <use style="fill:#9467bd;stroke:#9467bd;" x="56.229432" xlink:href="#m6e22ef6c96" y="160.583289"/>
     <use style="fill:#9467bd;stroke:#9467bd;" x="64.033628" xlink:href="#m6e22ef6c96" y="163.025671"/>
     <use style="fill:#9467bd;stroke:#9467bd;" x="71.837823" xlink:href="#m6e22ef6c96" y="148.166387"/>
     <use style="fill:#9467bd;stroke:#9467bd;" x="79.642019" xlink:href="#m6e22ef6c96" y="150.810036"/>
     <use style="fill:#9467bd;stroke:#9467bd;" x="87.446215" xlink:href="#m6e22ef6c96" y="137.305559"/>
     <use style="fill:#9467bd;stroke:#9467bd;" x="95.250411" xlink:href="#m6e22ef6c96" y="125.323142"/>
     <use style="fill:#9467bd;stroke:#9467bd;" x="103.054607" xlink:href="#m6e22ef6c96" y="131.298983"/>
     <use style="fill:#9467bd;stroke:#9467bd;" x="110.858802" xlink:href="#m6e22ef6c96" y="120.000056"/>
     <use style="fill:#9467bd;stroke:#9467bd;" x="118.662998" xlink:href="#m6e22ef6c96" y="109.995647"/>
     <use style="fill:#9467bd;stroke:#9467bd;" x="126.467194" xlink:href="#m6e22ef6c96" y="101.145532"/>
     <use style="fill:#9467bd;stroke:#9467bd;" x="134.27139" xlink:href="#m6e22ef6c96" y="93.321813"/>
     <use style="fill:#9467bd;stroke:#9467bd;" x="142.075586" xlink:href="#m6e22ef6c96" y="101.642467"/>
     <use style="fill:#9467bd;stroke:#9467bd;" x="149.879781" xlink:href="#m6e22ef6c96" y="113.241596"/>
     <use style="fill:#9467bd;stroke:#9467bd;" x="157.683977" xlink:href="#m6e22ef6c96" y="104.016224"/>
     <use style="fill:#9467bd;stroke:#9467bd;" x="165.488173" xlink:href="#m6e22ef6c96" y="95.85908"/>
     <use style="fill:#9467bd;stroke:#9467bd;" x="173.292369" xlink:href="#m6e22ef6c96" y="107.642714"/>
     <use style="fill:#9467bd;stroke:#9467bd;" x="181.096565" xlink:href="#m6e22ef6c96" y="129.417568"/>
     <use style="fill:#9467bd;stroke:#9467bd;" x="188.90076" xlink:href="#m6e22ef6c96" y="113.91163"/>
     <use style="fill:#9467bd;stroke:#9467bd;" x="196.704956" xlink:href="#m6e22ef6c96" y="100.93706"/>
     <use style="fill:#9467bd;stroke:#9467bd;" x="204.509152" xlink:href="#m6e22ef6c96" y="123.360405"/>
     <use style="fill:#9467bd;stroke:#9467bd;" x="212.313348" xlink:href="#m6e22ef6c96" y="92.159733"/>
     <use style="fill:#9467bd;stroke:#9467bd;" x="220.117544" xlink:href="#m6e22ef6c96" y="102.238978"/>
     <use style="fill:#9467bd;stroke:#9467bd;" x="227.92174" xlink:href="#m6e22ef6c96" y="87.006085"/>
     <use style="fill:#9467bd;stroke:#9467bd;" x="235.725935" xlink:href="#m6e22ef6c96" y="75.234699"/>
     <use style="fill:#9467bd;stroke:#9467bd;" x="243.530131" xlink:href="#m6e22ef6c96" y="66.123489"/>
     <use style="fill:#9467bd;stroke:#9467bd;" x="251.334327" xlink:href="#m6e22ef6c96" y="59.063718"/>
     <use style="fill:#9467bd;stroke:#9467bd;" x="259.138523" xlink:href="#m6e22ef6c96" y="85.227604"/>
     <use style="fill:#9467bd;stroke:#9467bd;" x="266.942719" xlink:href="#m6e22ef6c96" y="73.433721"/>
     <use style="fill:#9467bd;stroke:#9467bd;" x="274.746914" xlink:href="#m6e22ef6c96" y="64.405218"/>
     <use style="fill:#9467bd;stroke:#9467bd;" x="282.55111" xlink:href="#m6e22ef6c96" y="90.938015"/>
     <use style="fill:#9467bd;stroke:#9467bd;" x="290.355306" xlink:href="#m6e22ef6c96" y="71.940164"/>
     <use style="fill:#9467bd;stroke:#9467bd;" x="298.159502" xlink:href="#m6e22ef6c96" y="128.143476"/>
     <use style="fill:#9467bd;stroke:#9467bd;" x="305.963698" xlink:href="#m6e22ef6c96" y="167.312946"/>
     <use style="fill:#9467bd;stroke:#9467bd;" x="313.767893" xlink:href="#m6e22ef6c96" y="196.230756"/>
     <use style="fill:#9467bd;stroke:#9467bd;" x="321.572089" xlink:href="#m6e22ef6c96" y="136.365937"/>
     <use style="fill:#9467bd;stroke:#9467bd;" x="329.376285" xlink:href="#m6e22ef6c96" y="101.123248"/>
     <use style="fill:#9467bd;stroke:#9467bd;" x="337.180481" xlink:href="#m6e22ef6c96" y="78.579563"/>
     <use style="fill:#9467bd;stroke:#9467bd;" x="344.984677" xlink:href="#m6e22ef6c96" y="63.828798"/>
     <use style="fill:#9467bd;stroke:#9467bd;" x="352.788872" xlink:href="#m6e22ef6c96" y="128.552329"/>
     <use style="fill:#9467bd;stroke:#9467bd;" x="360.593068" xlink:href="#m6e22ef6c96" y="96.195211"/>
    </g>
   </g>
   <g id="patch_3">
    <path d="M 41.01125 242.201562 
L 41.01125 24.761562 
" style="fill:none;stroke:#000000;stroke-linecap:square;stroke-linejoin:miter;stroke-width:0.5;"/>
   </g>
   <g id="patch_4">
    <path d="M 375.81125 242.201562 
L 375.81125 24.761562 
" style="fill:none;stroke:#000000;stroke-linecap:square;stroke-linejoin:miter;stroke-width:0.5;"/>
   </g>
   <g id="patch_5">
    <path d="M 41.01125 242.201562 
L 375.81125 242.201562 
" style="fill:none;stroke:#000000;stroke-linecap:square;stroke-linejoin:miter;stroke-width:0.5;"/>
   </g>
   <g id="patch_6">
    <path d="M 41.01125 24.761562 
L 375.81125 24.761562 
" style="fill:none;stroke:#000000;stroke-linecap:square;stroke-linejoin:miter;stroke-width:0.5;"/>
   </g>
   <g id="text_15">
    <!-- Circle Probability with Normalized Reward -->
    <g transform="translate(85.916719 16.761562)scale(0.14 -0.14)">
     <defs>
      <path d="M 61.40625 13.09375 
L 63.296875 11.296875 
Q 54.40625 -1.40625 36 -1.40625 
Q 21.5 -1.40625 12.40625 7.5 
Q 2.796875 16.90625 2.796875 32.5 
Q 2.796875 47.09375 11.796875 57.203125 
Q 21.203125 67.59375 36.09375 67.59375 
Q 42.5 67.59375 48 66.09375 
Q 54.296875 64.296875 54.90625 64.296875 
Q 58.203125 64.296875 59.09375 67.59375 
L 61.09375 67.59375 
L 62 44.90625 
L 59.703125 44.90625 
Q 58.09375 52.09375 54.5 56 
Q 47.40625 63.59375 38.40625 63.59375 
Q 27.296875 63.59375 20.84375 55.4375 
Q 14.40625 47.296875 14.40625 34.09375 
Q 14.40625 18 21.59375 10.203125 
Q 28.296875 3 39.40625 3 
Q 46 3 50.796875 5.296875 
Q 55.59375 7.59375 61.40625 13.09375 
z
" id="STIXGeneral-Regular-67"/>
      <path d="M 39.796875 15.59375 
L 41.203125 14.703125 
Q 36.90625 6.296875 33 3.203125 
Q 27.90625 -1 21.5 -1 
Q 13.203125 -1 7.84375 5.25 
Q 2.5 11.5 2.5 21.203125 
Q 2.5 33.90625 10.90625 40.90625 
Q 17.09375 46 24.40625 46 
Q 30.703125 46 35.25 42.953125 
Q 39.796875 39.90625 39.796875 35.703125 
Q 39.796875 34 38.390625 32.75 
Q 37 31.5 35.09375 31.5 
Q 31.59375 31.5 30.296875 36.09375 
L 29.703125 38.296875 
Q 28.90625 41.09375 27.703125 42.09375 
Q 26.5 43.09375 23.796875 43.09375 
Q 17.703125 43.09375 13.953125 38.296875 
Q 10.203125 33.5 10.203125 25.703125 
Q 10.203125 17.09375 14.5 11.640625 
Q 18.796875 6.203125 25.703125 6.203125 
Q 30 6.203125 33.09375 8.25 
Q 36.203125 10.296875 39.796875 15.59375 
z
" id="STIXGeneral-Regular-99"/>
      <path d="M 69.40625 45 
L 69.40625 43.5 
Q 67.90625 43 67.203125 42.046875 
Q 66.5 41.09375 65.296875 38.09375 
L 51.5 3.5 
Q 49.5 -1.40625 48.703125 -1.40625 
Q 48.203125 -1.40625 47.84375 -0.75 
Q 47.5 -0.09375 46.296875 2.90625 
L 37.203125 26.5 
L 26 2.5 
Q 24.203125 -1.40625 23.5 -1.40625 
Q 22.59375 -1.40625 20.90625 3 
L 7.40625 37.203125 
Q 5.90625 41.09375 4.90625 42.1875 
Q 3.90625 43.296875 2.09375 43.5 
L 2.09375 45 
L 20.09375 45 
L 20.09375 43.5 
Q 17.5 43.203125 16.5 42.5 
Q 15.5 41.796875 15.5 40.203125 
Q 15.5 38.703125 16.09375 37.203125 
L 26 11.09375 
L 35.09375 31 
L 33.09375 36.59375 
Q 31.703125 40.59375 30.34375 41.890625 
Q 29 43.203125 26.203125 43.5 
L 26.203125 45 
L 46.5 45 
L 46.5 43.5 
Q 43 43 41.84375 42.296875 
Q 40.703125 41.59375 40.703125 40 
Q 40.703125 38.40625 42.40625 34 
L 50.796875 11.59375 
L 59.796875 33.796875 
Q 61.5 38 61.5 40.5 
Q 61.5 41.703125 60.546875 42.34375 
Q 59.59375 43 57.09375 43.5 
L 57.09375 45 
z
" id="STIXGeneral-Regular-119"/>
      <path d="M 48.703125 0 
L 27.5 0 
L 27.5 1.5 
Q 31.90625 2 33.09375 3.5 
Q 34.296875 5 34.296875 10.203125 
L 34.296875 30 
Q 34.296875 40.59375 26.90625 40.59375 
Q 23.90625 40.59375 21.40625 39.1875 
Q 18.90625 37.796875 15.703125 34.296875 
L 15.703125 10.203125 
Q 15.703125 5 16.890625 3.5 
Q 18.09375 2 22.5 1.5 
L 22.5 0 
L 0.90625 0 
L 0.90625 1.5 
Q 5.203125 2.09375 6.25 3.5 
Q 7.296875 4.90625 7.296875 10.203125 
L 7.296875 57.296875 
Q 7.296875 60.5 6.34375 61.453125 
Q 5.40625 62.40625 2.203125 62.40625 
Q 1.296875 62.40625 1 62.296875 
L 1 63.90625 
L 3.703125 64.703125 
Q 11.40625 67 15.203125 68.296875 
L 15.703125 68 
L 15.703125 37.59375 
Q 19.203125 42.09375 22.59375 44.046875 
Q 26 46 30.40625 46 
Q 42.703125 46 42.703125 30.09375 
L 42.703125 10.203125 
Q 42.703125 5 43.640625 3.640625 
Q 44.59375 2.296875 48.703125 1.5 
z
" id="STIXGeneral-Regular-104"/>
      <path d="M 41.796875 13.59375 
L 40.296875 0 
L 2.703125 0 
L 2.703125 1.5 
L 29.296875 42 
L 15.796875 42 
Q 11.09375 42 9.4375 40.34375 
Q 7.796875 38.703125 7.09375 33.203125 
L 5.296875 33.203125 
L 5.703125 45 
L 40.296875 45 
L 40.296875 43.5 
L 13.40625 3 
L 26.703125 3 
Q 35.09375 3 37.296875 5.703125 
Q 38.703125 7.40625 40 14 
z
" id="STIXGeneral-Regular-122"/>
      <path d="M 49.09375 4.203125 
L 34.40625 -1 
L 34 -0.703125 
L 34 5.703125 
Q 29.203125 -1 21.203125 -1 
Q 12.90625 -1 7.796875 4.953125 
Q 2.703125 10.90625 2.703125 20.5 
Q 2.703125 31.09375 8.796875 38.546875 
Q 14.90625 46 23.5 46 
Q 28.90625 46 34 41.703125 
L 34 57.296875 
Q 34 60.40625 33.09375 61.40625 
Q 32.203125 62.40625 29.40625 62.40625 
Q 28 62.40625 27.203125 62.296875 
L 27.203125 63.90625 
Q 36.296875 66.296875 41.90625 68.296875 
L 42.40625 68.09375 
L 42.40625 11.40625 
Q 42.40625 7.90625 43.25 6.796875 
Q 44.09375 5.703125 46.796875 5.703125 
Q 47.40625 5.703125 49.09375 5.796875 
z
M 34 10.203125 
L 34 33.203125 
Q 34 37.203125 30.953125 40.203125 
Q 27.90625 43.203125 23.796875 43.203125 
Q 18.09375 43.203125 14.6875 38.09375 
Q 11.296875 33 11.296875 24.5 
Q 11.296875 15.296875 15.046875 9.75 
Q 18.796875 4.203125 25.09375 4.203125 
Q 29.796875 4.203125 32.5 7.40625 
Q 34 9.09375 34 10.203125 
z
" id="STIXGeneral-Regular-100"/>
      <path d="M 66 0 
L 49.796875 0 
L 26 30.796875 
L 20.40625 30.59375 
L 20.40625 11.203125 
Q 20.40625 5.5 21.953125 3.890625 
Q 23.5 2.296875 29.296875 1.90625 
L 29.296875 0 
L 1.703125 0 
L 1.703125 1.90625 
Q 7.40625 2.40625 8.796875 4.09375 
Q 10.203125 5.796875 10.203125 12.40625 
L 10.203125 55.09375 
Q 10.203125 60.703125 8.796875 62.296875 
Q 7.40625 63.90625 1.703125 64.296875 
L 1.703125 66.203125 
L 28.90625 66.203125 
Q 42.59375 66.203125 49.796875 60.296875 
Q 54.703125 56.296875 54.703125 48.296875 
Q 54.703125 34.703125 36.59375 31.90625 
L 56.59375 6.59375 
Q 58.703125 4 60.59375 3.09375 
Q 62.5 2.203125 66 1.90625 
z
M 20.40625 58.296875 
L 20.40625 34.296875 
Q 27.59375 34.40625 31.09375 35.09375 
Q 34.59375 35.796875 38.09375 37.703125 
Q 43.796875 40.90625 43.796875 49.09375 
Q 43.796875 62.5 25.5 62.5 
Q 22.796875 62.5 21.59375 61.640625 
Q 20.40625 60.796875 20.40625 58.296875 
z
" id="STIXGeneral-Regular-82"/>
     </defs>
     <use xlink:href="#STIXGeneral-Regular-67"/>
     <use x="66.699997" xlink:href="#STIXGeneral-Regular-105"/>
     <use x="94.499985" xlink:href="#STIXGeneral-Regular-114"/>
     <use x="127.799973" xlink:href="#STIXGeneral-Regular-99"/>
     <use x="172.199966" xlink:href="#STIXGeneral-Regular-108"/>
     <use x="199.999954" xlink:href="#STIXGeneral-Regular-101"/>
     <use x="244.399948" xlink:href="#STIXGeneral-Regular-32"/>
     <use x="269.399933" xlink:href="#STIXGeneral-Regular-80"/>
     <use x="325.09993" xlink:href="#STIXGeneral-Regular-114"/>
     <use x="358.399918" xlink:href="#STIXGeneral-Regular-111"/>
     <use x="408.399902" xlink:href="#STIXGeneral-Regular-98"/>
     <use x="458.399887" xlink:href="#STIXGeneral-Regular-97"/>
     <use x="502.799881" xlink:href="#STIXGeneral-Regular-98"/>
     <use x="552.799866" xlink:href="#STIXGeneral-Regular-105"/>
     <use x="580.599854" xlink:href="#STIXGeneral-Regular-108"/>
     <use x="608.399841" xlink:href="#STIXGeneral-Regular-105"/>
     <use x="636.199829" xlink:href="#STIXGeneral-Regular-116"/>
     <use x="663.999817" xlink:href="#STIXGeneral-Regular-121"/>
     <use x="713.999802" xlink:href="#STIXGeneral-Regular-32"/>
     <use x="738.999786" xlink:href="#STIXGeneral-Regular-119"/>
     <use x="811.199768" xlink:href="#STIXGeneral-Regular-105"/>
     <use x="838.999756" xlink:href="#STIXGeneral-Regular-116"/>
     <use x="866.799744" xlink:href="#STIXGeneral-Regular-104"/>
     <use x="916.799728" xlink:href="#STIXGeneral-Regular-32"/>
     <use x="941.799713" xlink:href="#STIXGeneral-Regular-78"/>
     <use x="1013.999695" xlink:href="#STIXGeneral-Regular-111"/>
     <use x="1063.99968" xlink:href="#STIXGeneral-Regular-114"/>
     <use x="1097.299667" xlink:href="#STIXGeneral-Regular-109"/>
     <use x="1175.099655" xlink:href="#STIXGeneral-Regular-97"/>
     <use x="1219.499649" xlink:href="#STIXGeneral-Regular-108"/>
     <use x="1247.299637" xlink:href="#STIXGeneral-Regular-105"/>
     <use x="1275.099625" xlink:href="#STIXGeneral-Regular-122"/>
     <use x="1319.499619" xlink:href="#STIXGeneral-Regular-101"/>
     <use x="1363.899612" xlink:href="#STIXGeneral-Regular-100"/>
     <use x="1413.899597" xlink:href="#STIXGeneral-Regular-32"/>
     <use x="1438.899582" xlink:href="#STIXGeneral-Regular-82"/>
     <use x="1505.599579" xlink:href="#STIXGeneral-Regular-101"/>
     <use x="1549.999573" xlink:href="#STIXGeneral-Regular-119"/>
     <use x="1622.199554" xlink:href="#STIXGeneral-Regular-97"/>
     <use x="1666.599548" xlink:href="#STIXGeneral-Regular-114"/>
     <use x="1699.899536" xlink:href="#STIXGeneral-Regular-100"/>
    </g>
   </g>
   <g id="legend_1">
    <g id="line2d_18">
     <path d="M 48.21125 34.761562 
L 64.21125 34.761562 
" style="fill:none;stroke:#1f77b4;stroke-dasharray:5.12,1.28,0.8,1.28;stroke-dashoffset:0;stroke-width:0.8;"/>
    </g>
    <g id="line2d_19">
     <g>
      <use style="fill:#1f77b4;stroke:#1f77b4;" x="56.21125" xlink:href="#m53cf20b4b1" y="34.761562"/>
     </g>
    </g>
    <g id="text_16">
     <!-- S1 -->
     <g transform="translate(70.61125 37.561562)scale(0.08 -0.08)">
      <defs>
       <path d="M 46.90625 46.296875 
L 44.40625 46.296875 
Q 42.703125 52.5 40.296875 55.703125 
Q 34.203125 63.5 25.796875 63.5 
Q 21.203125 63.5 18.453125 60.84375 
Q 15.703125 58.203125 15.703125 54 
Q 15.703125 52 16.703125 50.09375 
Q 17.703125 48.203125 18.84375 46.84375 
Q 20 45.5 22.890625 43.5 
Q 25.796875 41.5 27.59375 40.453125 
Q 29.40625 39.40625 33.59375 36.90625 
Q 41.703125 32.203125 45.390625 27.546875 
Q 49.09375 22.90625 49.09375 17.296875 
Q 49.09375 9 43.296875 3.796875 
Q 37.5 -1.40625 28.703125 -1.40625 
Q 22.203125 -1.40625 16.90625 0.90625 
Q 14.296875 2 12.203125 2 
Q 11 2 10.203125 1.09375 
Q 9.40625 0.203125 9.40625 -1.296875 
L 7.203125 -1.296875 
L 4.296875 19.90625 
L 6.5 19.90625 
Q 13.203125 2.203125 27.09375 2.203125 
Q 32.40625 2.203125 35.703125 5.34375 
Q 39 8.5 39 13.40625 
Q 39 18.09375 36.09375 21.296875 
Q 31.296875 26.5 19.296875 32.90625 
Q 7.09375 39.40625 7.09375 50.09375 
Q 7.09375 58.09375 12 62.84375 
Q 16.90625 67.59375 24.5 67.59375 
Q 29.796875 67.59375 35 65.40625 
Q 37.703125 64.203125 39.40625 64.203125 
Q 42 64.203125 42.59375 67.59375 
L 44.703125 67.59375 
z
" id="STIXGeneral-Regular-83"/>
      </defs>
      <use xlink:href="#STIXGeneral-Regular-83"/>
      <use x="55.599991" xlink:href="#STIXGeneral-Regular-49"/>
     </g>
    </g>
    <g id="line2d_20">
     <path d="M 48.21125 46.097812 
L 64.21125 46.097812 
" style="fill:none;stroke:#ff7f0e;stroke-dasharray:5.12,1.28,0.8,1.28;stroke-dashoffset:0;stroke-width:0.8;"/>
    </g>
    <g id="line2d_21">
     <g>
      <use style="fill:#ff7f0e;stroke:#ff7f0e;" x="56.21125" xlink:href="#mbb0920313e" y="46.097812"/>
     </g>
    </g>
    <g id="text_17">
     <!-- S2 -->
     <g transform="translate(70.61125 48.897812)scale(0.08 -0.08)">
      <use xlink:href="#STIXGeneral-Regular-83"/>
      <use x="55.599991" xlink:href="#STIXGeneral-Regular-50"/>
     </g>
    </g>
    <g id="line2d_22">
     <path d="M 48.21125 57.434062 
L 64.21125 57.434062 
" style="fill:none;stroke:#2ca02c;stroke-dasharray:5.12,1.28,0.8,1.28;stroke-dashoffset:0;stroke-width:0.8;"/>
    </g>
    <g id="line2d_23">
     <g>
      <use style="fill:#2ca02c;stroke:#2ca02c;" x="56.21125" xlink:href="#mb4319dfb99" y="57.434062"/>
     </g>
    </g>
    <g id="text_18">
     <!-- S3 -->
     <g transform="translate(70.61125 60.234062)scale(0.08 -0.08)">
      <use xlink:href="#STIXGeneral-Regular-83"/>
      <use x="55.599991" xlink:href="#STIXGeneral-Regular-51"/>
     </g>
    </g>
    <g id="line2d_24">
     <path d="M 48.21125 68.770312 
L 64.21125 68.770312 
" style="fill:none;stroke:#d62728;stroke-dasharray:5.12,1.28,0.8,1.28;stroke-dashoffset:0;stroke-width:0.8;"/>
    </g>
    <g id="line2d_25">
     <g>
      <use style="fill:#d62728;stroke:#d62728;" x="56.21125" xlink:href="#mfbc9eb2909" y="68.770312"/>
     </g>
    </g>
    <g id="text_19">
     <!-- S4 -->
     <g transform="translate(70.61125 71.570312)scale(0.08 -0.08)">
      <use xlink:href="#STIXGeneral-Regular-83"/>
      <use x="55.599991" xlink:href="#STIXGeneral-Regular-52"/>
     </g>
    </g>
    <g id="line2d_26">
     <path d="M 48.21125 80.106562 
L 64.21125 80.106562 
" style="fill:none;stroke:#9467bd;stroke-dasharray:5.12,1.28,0.8,1.28;stroke-dashoffset:0;stroke-width:0.8;"/>
    </g>
    <g id="line2d_27">
     <g>
      <use style="fill:#9467bd;stroke:#9467bd;" x="56.21125" xlink:href="#m6e22ef6c96" y="80.106562"/>
     </g>
    </g>
    <g id="text_20">
     <!-- S5 -->
     <g transform="translate(70.61125 82.906562)scale(0.08 -0.08)">
      <use xlink:href="#STIXGeneral-Regular-83"/>
      <use x="55.599991" xlink:href="#STIXGeneral-Regular-53"/>
     </g>
    </g>
   </g>
  </g>
 </g>
 <defs>
  <clipPath id="p7fbe4fb25e">
   <rect height="217.44" width="334.8" x="41.01125" y="24.761562"/>
  </clipPath>
 </defs>
</svg>
